%FSDAX24Y24*%
%MOIN*%
%SFA1B1*%

%IPPOS*%
%ADD24R,0.067100X0.067100*%
%ADD25C,0.067100*%
%ADD26R,0.067100X0.067100*%
%ADD27R,0.074900X0.074900*%
%ADD28C,0.074900*%
%ADD29C,0.058000*%
%LNcarteasserv-1*%
%LPD*%
G54D24*
X023400Y028200D03*
X023500Y022900D03*
X036950Y016300D03*
X023450Y017400D03*
G54D25*
X023400Y027200D03*
Y026200D03*
Y025200D03*
X023500Y021900D03*
Y020900D03*
Y019900D03*
X036950Y017300D03*
Y018300D03*
Y019300D03*
X034650Y014300D03*
Y015300D03*
Y016300D03*
Y017300D03*
Y018300D03*
Y019300D03*
Y020300D03*
Y021300D03*
Y022300D03*
Y023300D03*
Y024300D03*
Y025300D03*
Y026300D03*
Y027300D03*
Y028300D03*
Y029300D03*
Y030300D03*
Y031300D03*
Y032300D03*
Y033300D03*
X025650Y014300D03*
Y015300D03*
Y016300D03*
Y017300D03*
Y018300D03*
Y019300D03*
Y020300D03*
Y021300D03*
Y022300D03*
Y023300D03*
Y024300D03*
Y025300D03*
Y026300D03*
Y027300D03*
Y028300D03*
Y029300D03*
Y030300D03*
Y031300D03*
Y032300D03*
X023450Y016400D03*
Y015400D03*
Y014400D03*
X024300Y033800D03*
G54D26*
X025650Y033300D03*
X023300Y033800D03*
G54D27*
X024250Y031750D03*
G54D28*
X023250Y031750D03*
X022250D03*
G54D29*
X024950Y032700D03*
X022250D03*
X024600Y030500D03*
X023605Y030595D03*
X022250Y030700D03*
X022050Y016350D03*
Y019900D03*
X023400Y024150D03*
X035700Y017300D03*
M02*