%FSDAX24Y24*%
%MOIN*%
%SFA1B1*%

%IPPOS*%
%ADD19C,0.023600*%
%ADD20C,0.009800*%
%ADD21C,0.007900*%
%ADD22C,0.005900*%
%LNcarteasserv-1*%
%LPD*%
G54D19*
X028122Y033839D02*
D01*
X028121Y033847*
X028120Y033855*
X028119Y033863*
X028117Y033871*
X028114Y033879*
X028111Y033886*
X028108Y033894*
X028104Y033901*
X028099Y033908*
X028094Y033914*
X028088Y033920*
X028082Y033926*
X028076Y033931*
X028069Y033936*
X028063Y033941*
X028055Y033945*
X028048Y033948*
X028040Y033951*
X028032Y033953*
X028024Y033955*
X028016Y033956*
X028008Y033956*
X027999*
X027991Y033956*
X027983Y033955*
X027975Y033953*
X027967Y033951*
X027959Y033948*
X027952Y033945*
X027945Y033941*
X027938Y033936*
X027931Y033931*
X027925Y033926*
X027919Y033920*
X027913Y033914*
X027908Y033908*
X027903Y033901*
X027899Y033894*
X027896Y033886*
X027893Y033879*
X027890Y033871*
X027888Y033863*
X027887Y033855*
X027886Y033847*
X027886Y033839*
X027886Y033830*
X027887Y033822*
X027888Y033814*
X027890Y033806*
X027893Y033798*
X027896Y033791*
X027899Y033783*
X027903Y033776*
X027908Y033769*
X027913Y033763*
X027919Y033757*
X027925Y033751*
X027931Y033746*
X027938Y033741*
X027945Y033736*
X027952Y033732*
X027959Y033729*
X027967Y033726*
X027975Y033724*
X027983Y033722*
X027991Y033721*
X027999Y033721*
X028008*
X028016Y033721*
X028024Y033722*
X028032Y033724*
X028040Y033726*
X028048Y033729*
X028055Y033732*
X028063Y033736*
X028069Y033741*
X028076Y033746*
X028082Y033751*
X028088Y033757*
X028094Y033763*
X028099Y033769*
X028104Y033776*
X028108Y033783*
X028111Y033791*
X028114Y033798*
X028117Y033806*
X028119Y033814*
X028120Y033822*
X028121Y033830*
X028122Y033839*
G54D20*
X027199Y033812D02*
D01*
X027198Y033815*
X027198Y033818*
X027197Y033822*
X027197Y033825*
X027196Y033828*
X027194Y033831*
X027193Y033835*
X027191Y033837*
X027189Y033840*
X027187Y033843*
X027185Y033846*
X027182Y033848*
X027180Y033850*
X027177Y033852*
X027174Y033854*
X027171Y033856*
X027168Y033857*
X027165Y033858*
X027161Y033859*
X027158Y033860*
X027155Y033860*
X027151Y033860*
X027148*
X027144Y033860*
X027141Y033860*
X027138Y033859*
X027134Y033858*
X027131Y033857*
X027128Y033856*
X027125Y033854*
X027122Y033852*
X027119Y033850*
X027117Y033848*
X027114Y033846*
X027112Y033843*
X027110Y033840*
X027108Y033837*
X027106Y033835*
X027105Y033831*
X027103Y033828*
X027102Y033825*
X027102Y033822*
X027101Y033818*
X027101Y033815*
X027101Y033812*
X027101Y033808*
X027101Y033805*
X027102Y033801*
X027102Y033798*
X027103Y033795*
X027105Y033792*
X027106Y033788*
X027108Y033786*
X027110Y033783*
X027112Y033780*
X027114Y033777*
X027117Y033775*
X027119Y033773*
X027122Y033771*
X027125Y033769*
X027128Y033767*
X027131Y033766*
X027134Y033765*
X027138Y033764*
X027141Y033763*
X027144Y033763*
X027148Y033763*
X027151*
X027155Y033763*
X027158Y033763*
X027161Y033764*
X027165Y033765*
X027168Y033766*
X027171Y033767*
X027174Y033769*
X027177Y033771*
X027180Y033773*
X027182Y033775*
X027185Y033777*
X027187Y033780*
X027189Y033783*
X027191Y033786*
X027193Y033788*
X027194Y033792*
X027196Y033795*
X027197Y033798*
X027197Y033801*
X027198Y033805*
X027198Y033808*
X027199Y033812*
G54D21*
X029900Y034233D02*
D01*
X029900Y034215*
X029902Y034198*
X029905Y034181*
X029909Y034164*
X029915Y034147*
X029921Y034131*
X029929Y034115*
X029937Y034100*
X029947Y034086*
X029958Y034072*
X029970Y034059*
X029982Y034047*
X029996Y034035*
X030010Y034025*
X030025Y034016*
X030040Y034008*
X030056Y034001*
X030072Y033995*
X030089Y033990*
X030106Y033986*
X030123Y033984*
X030141Y033983*
X030158*
X030176Y033984*
X030193Y033986*
X030210Y033990*
X030227Y033995*
X030243Y034001*
X030259Y034008*
X030275Y034016*
X030289Y034025*
X030303Y034035*
X030317Y034047*
X030329Y034059*
X030341Y034072*
X030352Y034086*
X030362Y034100*
X030370Y034115*
X030378Y034131*
X030384Y034147*
X030390Y034164*
X030394Y034181*
X030397Y034198*
X030399Y034215*
X030400Y034233*
X022900Y024700D02*
X023900D01*
X022900D02*
Y028700D01*
X023900Y024700D02*
Y028700D01*
X022900D02*
X023900D01*
X023000Y019400D02*
X024000D01*
X023000D02*
Y023400D01*
X024000Y019400D02*
Y023400D01*
X023000D02*
X024000D01*
X036450Y019800D02*
X037450D01*
Y015800D02*
Y019800D01*
X036450Y015800D02*
Y019800D01*
Y015800D02*
X037450D01*
X027611Y013367D02*
X032689D01*
X030400Y034233D02*
X032689D01*
X027611D02*
X029900D01*
X032689Y013367D02*
Y034233D01*
X027611Y013367D02*
Y034233D01*
X022950Y013900D02*
X023950D01*
X022950D02*
Y017900D01*
X023950Y013900D02*
Y017900D01*
X022950D02*
X023950D01*
X022800Y034300D02*
X024800D01*
X022800Y033300D02*
Y034300D01*
Y033300D02*
X024800D01*
Y034300*
X021203Y030608D02*
X025297D01*
X021203D02*
Y032419D01*
X025297*
Y030608D02*
Y032419D01*
X021203Y030805D02*
X025297D01*
G54D22*
X023447Y032705D02*
X023348Y032606D01*
X023152*
X023053Y032705*
Y032803*
X023152Y032902*
X023250*
X023152*
X023053Y033000*
Y033098*
X023152Y033197*
X023348*
X023447Y033098*
X022053Y033197D02*
X022447D01*
X022053Y032803*
Y032705*
X022152Y032606*
X022348*
X022447Y032705*
X024348Y033197D02*
X024152D01*
X024250*
Y032606*
X024348Y032705*
M02*