%FSDAX24Y24*%
%MOIN*%
%SFA1B1*%

%IPPOS*%
%ADD31C,0.005000*%
%LNcarteasserv-1*%
%LPD*%
G54D31*
X023223Y028200D02*
X023577D01*
X023400Y028023D02*
Y028377D01*
X023223Y027200D02*
X023577D01*
X023400Y027023D02*
Y027377D01*
X023223Y026200D02*
X023577D01*
X023400Y026023D02*
Y026377D01*
X023223Y025200D02*
X023577D01*
X023400Y025023D02*
Y025377D01*
X023323Y022900D02*
X023677D01*
X023500Y022723D02*
Y023077D01*
X023323Y021900D02*
X023677D01*
X023500Y021723D02*
Y022077D01*
X023323Y020900D02*
X023677D01*
X023500Y020723D02*
Y021077D01*
X023323Y019900D02*
X023677D01*
X023500Y019723D02*
Y020077D01*
X036773Y016300D02*
X037127D01*
X036950Y016123D02*
Y016477D01*
X036773Y017300D02*
X037127D01*
X036950Y017123D02*
Y017477D01*
X036773Y018300D02*
X037127D01*
X036950Y018123D02*
Y018477D01*
X036773Y019300D02*
X037127D01*
X036950Y019123D02*
Y019477D01*
X034473Y014300D02*
X034827D01*
X034650Y014123D02*
Y014477D01*
X034473Y015300D02*
X034827D01*
X034650Y015123D02*
Y015477D01*
X034473Y016300D02*
X034827D01*
X034650Y016123D02*
Y016477D01*
X034473Y017300D02*
X034827D01*
X034650Y017123D02*
Y017477D01*
X034473Y018300D02*
X034827D01*
X034650Y018123D02*
Y018477D01*
X034473Y019300D02*
X034827D01*
X034650Y019123D02*
Y019477D01*
X034473Y020300D02*
X034827D01*
X034650Y020123D02*
Y020477D01*
X034473Y021300D02*
X034827D01*
X034650Y021123D02*
Y021477D01*
X034473Y022300D02*
X034827D01*
X034650Y022123D02*
Y022477D01*
X034473Y023300D02*
X034827D01*
X034650Y023123D02*
Y023477D01*
X034473Y024300D02*
X034827D01*
X034650Y024123D02*
Y024477D01*
X034473Y025300D02*
X034827D01*
X034650Y025123D02*
Y025477D01*
X034473Y026300D02*
X034827D01*
X034650Y026123D02*
Y026477D01*
X034473Y027300D02*
X034827D01*
X034650Y027123D02*
Y027477D01*
X034473Y028300D02*
X034827D01*
X034650Y028123D02*
Y028477D01*
X034473Y029300D02*
X034827D01*
X034650Y029123D02*
Y029477D01*
X034473Y030300D02*
X034827D01*
X034650Y030123D02*
Y030477D01*
X034473Y031300D02*
X034827D01*
X034650Y031123D02*
Y031477D01*
X034473Y032300D02*
X034827D01*
X034650Y032123D02*
Y032477D01*
X034473Y033300D02*
X034827D01*
X034650Y033123D02*
Y033477D01*
X025473Y014300D02*
X025827D01*
X025650Y014123D02*
Y014477D01*
X025473Y015300D02*
X025827D01*
X025650Y015123D02*
Y015477D01*
X025473Y016300D02*
X025827D01*
X025650Y016123D02*
Y016477D01*
X025473Y017300D02*
X025827D01*
X025650Y017123D02*
Y017477D01*
X025473Y018300D02*
X025827D01*
X025650Y018123D02*
Y018477D01*
X025473Y019300D02*
X025827D01*
X025650Y019123D02*
Y019477D01*
X025473Y020300D02*
X025827D01*
X025650Y020123D02*
Y020477D01*
X025473Y021300D02*
X025827D01*
X025650Y021123D02*
Y021477D01*
X025473Y022300D02*
X025827D01*
X025650Y022123D02*
Y022477D01*
X025473Y023300D02*
X025827D01*
X025650Y023123D02*
Y023477D01*
X025473Y024300D02*
X025827D01*
X025650Y024123D02*
Y024477D01*
X025473Y025300D02*
X025827D01*
X025650Y025123D02*
Y025477D01*
X025473Y026300D02*
X025827D01*
X025650Y026123D02*
Y026477D01*
X025473Y027300D02*
X025827D01*
X025650Y027123D02*
Y027477D01*
X025473Y028300D02*
X025827D01*
X025650Y028123D02*
Y028477D01*
X025473Y029300D02*
X025827D01*
X025650Y029123D02*
Y029477D01*
X025473Y030300D02*
X025827D01*
X025650Y030123D02*
Y030477D01*
X025473Y031300D02*
X025827D01*
X025650Y031123D02*
Y031477D01*
X025473Y032300D02*
X025827D01*
X025650Y032123D02*
Y032477D01*
X025473Y033300D02*
X025827D01*
X025650Y033123D02*
Y033477D01*
X023273Y017400D02*
X023627D01*
X023450Y017223D02*
Y017577D01*
X023273Y016400D02*
X023627D01*
X023450Y016223D02*
Y016577D01*
X023273Y015400D02*
X023627D01*
X023450Y015223D02*
Y015577D01*
X023273Y014400D02*
X023627D01*
X023450Y014223D02*
Y014577D01*
X024123Y033800D02*
X024477D01*
X024300Y033623D02*
Y033977D01*
X023123Y033800D02*
X023477D01*
X023300Y033623D02*
Y033977D01*
X024033Y031750D02*
X024467D01*
X024250Y031533D02*
Y031967D01*
X023033Y031750D02*
X023467D01*
X023250Y031533D02*
Y031967D01*
X022033Y031750D02*
X022467D01*
X022250Y031533D02*
Y031967D01*
X024810Y032700D02*
X025090D01*
X024950Y032560D02*
Y032840D01*
X022110Y032700D02*
X022390D01*
X022250Y032560D02*
Y032840D01*
X024460Y030500D02*
X024740D01*
X024600Y030360D02*
Y030640D01*
X023465Y030595D02*
X023745D01*
X023605Y030455D02*
Y030735D01*
X022110Y030700D02*
X022390D01*
X022250Y030560D02*
Y030840D01*
X021910Y016350D02*
X022190D01*
X022050Y016210D02*
Y016490D01*
X021910Y019900D02*
X022190D01*
X022050Y019760D02*
Y020040D01*
X023260Y024150D02*
X023540D01*
X023400Y024010D02*
Y024290D01*
X035560Y017300D02*
X035840D01*
X035700Y017160D02*
Y017440D01*
M02*