%FSDAX24Y24*%
%MOIN*%
%SFA1B1*%

%IPPOS*%
%ADD31C,0.005000*%
%ADD32C,0.006700*%
%LNcarteasserv-1*%
%LPD*%
G54D31*
X023200Y028000D02*
Y028400D01*
X023600*
Y028000*
X023200*
Y027000D02*
Y027400D01*
X023600*
Y027000*
X023200*
Y026000D02*
Y026400D01*
X023600*
Y026000*
X023200*
Y025000D02*
Y025400D01*
X023600*
Y025000*
X023200*
X023300Y022700D02*
Y023100D01*
X023700*
Y022700*
X023300*
Y021700D02*
Y022100D01*
X023700*
Y021700*
X023300*
Y020700D02*
Y021100D01*
X023700*
Y020700*
X023300*
Y019700D02*
Y020100D01*
X023700*
Y019700*
X023300*
X036750Y016100D02*
Y016500D01*
X037150*
Y016100*
X036750*
Y017100D02*
Y017500D01*
X037150*
Y017100*
X036750*
Y018100D02*
Y018500D01*
X037150*
Y018100*
X036750*
Y019100D02*
Y019500D01*
X037150*
Y019100*
X036750*
X034450Y014100D02*
Y014500D01*
X034850*
Y014100*
X034450*
Y015100D02*
Y015500D01*
X034850*
Y015100*
X034450*
Y016100D02*
Y016500D01*
X034850*
Y016100*
X034450*
Y017100D02*
Y017500D01*
X034850*
Y017100*
X034450*
Y018100D02*
Y018500D01*
X034850*
Y018100*
X034450*
Y019100D02*
Y019500D01*
X034850*
Y019100*
X034450*
Y020100D02*
Y020500D01*
X034850*
Y020100*
X034450*
Y021100D02*
Y021500D01*
X034850*
Y021100*
X034450*
Y022100D02*
Y022500D01*
X034850*
Y022100*
X034450*
Y023100D02*
Y023500D01*
X034850*
Y023100*
X034450*
Y024100D02*
Y024500D01*
X034850*
Y024100*
X034450*
Y025100D02*
Y025500D01*
X034850*
Y025100*
X034450*
Y026100D02*
Y026500D01*
X034850*
Y026100*
X034450*
Y027100D02*
Y027500D01*
X034850*
Y027100*
X034450*
Y028100D02*
Y028500D01*
X034850*
Y028100*
X034450*
Y029100D02*
Y029500D01*
X034850*
Y029100*
X034450*
Y030100D02*
Y030500D01*
X034850*
Y030100*
X034450*
Y031100D02*
Y031500D01*
X034850*
Y031100*
X034450*
Y032100D02*
Y032500D01*
X034850*
Y032100*
X034450*
Y033100D02*
Y033500D01*
X034850*
Y033100*
X034450*
X025450Y014100D02*
Y014500D01*
X025850*
Y014100*
X025450*
Y015100D02*
Y015500D01*
X025850*
Y015100*
X025450*
Y016100D02*
Y016500D01*
X025850*
Y016100*
X025450*
Y017100D02*
Y017500D01*
X025850*
Y017100*
X025450*
Y018100D02*
Y018500D01*
X025850*
Y018100*
X025450*
Y019100D02*
Y019500D01*
X025850*
Y019100*
X025450*
Y020100D02*
Y020500D01*
X025850*
Y020100*
X025450*
Y021100D02*
Y021500D01*
X025850*
Y021100*
X025450*
Y022100D02*
Y022500D01*
X025850*
Y022100*
X025450*
Y023100D02*
Y023500D01*
X025850*
Y023100*
X025450*
Y024100D02*
Y024500D01*
X025850*
Y024100*
X025450*
Y025100D02*
Y025500D01*
X025850*
Y025100*
X025450*
Y026100D02*
Y026500D01*
X025850*
Y026100*
X025450*
Y027100D02*
Y027500D01*
X025850*
Y027100*
X025450*
Y028100D02*
Y028500D01*
X025850*
Y028100*
X025450*
Y029100D02*
Y029500D01*
X025850*
Y029100*
X025450*
Y030100D02*
Y030500D01*
X025850*
Y030100*
X025450*
Y031100D02*
Y031500D01*
X025850*
Y031100*
X025450*
Y032100D02*
Y032500D01*
X025850*
Y032100*
X025450*
Y033100D02*
Y033500D01*
X025850*
Y033100*
X025450*
X023250Y017200D02*
Y017600D01*
X023650*
Y017200*
X023250*
Y016200D02*
Y016600D01*
X023650*
Y016200*
X023250*
Y015200D02*
Y015600D01*
X023650*
Y015200*
X023250*
Y014200D02*
Y014600D01*
X023650*
Y014200*
X023250*
X024100Y033600D02*
Y034000D01*
X024500*
Y033600*
X024100*
X023100D02*
Y034000D01*
X023500*
Y033600*
X023100*
X024950Y032500D02*
X024750Y032900D01*
X025150*
X024950Y032500*
X022250D02*
X022050Y032900D01*
X022450*
X022250Y032500*
X024600Y030300D02*
X024400Y030700D01*
X024800*
X024600Y030300*
X023605Y030395D02*
X023405Y030795D01*
X023805*
X023605Y030395*
X022250Y030500D02*
X022050Y030900D01*
X022450*
X022250Y030500*
X022050Y016150D02*
X021850Y016550D01*
X022250*
X022050Y016150*
Y019700D02*
X021850Y020100D01*
X022250*
X022050Y019700*
X023400Y023950D02*
X023200Y024350D01*
X023600*
X023400Y023950*
X035700Y017100D02*
X035500Y017500D01*
X035900*
X035700Y017100*
G54D32*
X024450Y031750D02*
D01*
X024449Y031763*
X024448Y031777*
X024445Y031791*
X024442Y031805*
X024437Y031818*
X024432Y031831*
X024426Y031843*
X024419Y031855*
X024411Y031867*
X024403Y031878*
X024393Y031888*
X024383Y031898*
X024373Y031907*
X024361Y031915*
X024350Y031923*
X024337Y031929*
X024324Y031935*
X024311Y031940*
X024298Y031944*
X024284Y031946*
X024270Y031948*
X024256Y031949*
X024243*
X024229Y031948*
X024215Y031946*
X024201Y031944*
X024188Y031940*
X024175Y031935*
X024162Y031929*
X024150Y031923*
X024138Y031915*
X024126Y031907*
X024116Y031898*
X024106Y031888*
X024096Y031878*
X024088Y031867*
X024080Y031855*
X024073Y031843*
X024067Y031831*
X024062Y031818*
X024057Y031805*
X024054Y031791*
X024051Y031777*
X024050Y031763*
X024050Y031750*
X024050Y031736*
X024051Y031722*
X024054Y031708*
X024057Y031694*
X024062Y031681*
X024067Y031668*
X024073Y031656*
X024080Y031644*
X024088Y031632*
X024096Y031621*
X024106Y031611*
X024116Y031601*
X024126Y031592*
X024138Y031584*
X024150Y031576*
X024162Y031570*
X024175Y031564*
X024188Y031559*
X024201Y031555*
X024215Y031553*
X024229Y031551*
X024243Y031550*
X024256*
X024270Y031551*
X024284Y031553*
X024298Y031555*
X024311Y031559*
X024324Y031564*
X024337Y031570*
X024350Y031576*
X024361Y031584*
X024373Y031592*
X024383Y031601*
X024393Y031611*
X024403Y031621*
X024411Y031632*
X024419Y031644*
X024426Y031656*
X024432Y031668*
X024437Y031681*
X024442Y031694*
X024445Y031708*
X024448Y031722*
X024449Y031736*
X024450Y031750*
X023450D02*
D01*
X023449Y031763*
X023448Y031777*
X023445Y031791*
X023442Y031805*
X023437Y031818*
X023432Y031831*
X023426Y031843*
X023419Y031855*
X023411Y031867*
X023403Y031878*
X023393Y031888*
X023383Y031898*
X023373Y031907*
X023361Y031915*
X023350Y031923*
X023337Y031929*
X023324Y031935*
X023311Y031940*
X023298Y031944*
X023284Y031946*
X023270Y031948*
X023256Y031949*
X023243*
X023229Y031948*
X023215Y031946*
X023201Y031944*
X023188Y031940*
X023175Y031935*
X023162Y031929*
X023150Y031923*
X023138Y031915*
X023126Y031907*
X023116Y031898*
X023106Y031888*
X023096Y031878*
X023088Y031867*
X023080Y031855*
X023073Y031843*
X023067Y031831*
X023062Y031818*
X023057Y031805*
X023054Y031791*
X023051Y031777*
X023050Y031763*
X023050Y031750*
X023050Y031736*
X023051Y031722*
X023054Y031708*
X023057Y031694*
X023062Y031681*
X023067Y031668*
X023073Y031656*
X023080Y031644*
X023088Y031632*
X023096Y031621*
X023106Y031611*
X023116Y031601*
X023126Y031592*
X023138Y031584*
X023150Y031576*
X023162Y031570*
X023175Y031564*
X023188Y031559*
X023201Y031555*
X023215Y031553*
X023229Y031551*
X023243Y031550*
X023256*
X023270Y031551*
X023284Y031553*
X023298Y031555*
X023311Y031559*
X023324Y031564*
X023337Y031570*
X023350Y031576*
X023361Y031584*
X023373Y031592*
X023383Y031601*
X023393Y031611*
X023403Y031621*
X023411Y031632*
X023419Y031644*
X023426Y031656*
X023432Y031668*
X023437Y031681*
X023442Y031694*
X023445Y031708*
X023448Y031722*
X023449Y031736*
X023450Y031750*
X022450D02*
D01*
X022449Y031763*
X022448Y031777*
X022445Y031791*
X022442Y031805*
X022437Y031818*
X022432Y031831*
X022426Y031843*
X022419Y031855*
X022411Y031867*
X022403Y031878*
X022393Y031888*
X022383Y031898*
X022373Y031907*
X022361Y031915*
X022350Y031923*
X022337Y031929*
X022324Y031935*
X022311Y031940*
X022298Y031944*
X022284Y031946*
X022270Y031948*
X022256Y031949*
X022243*
X022229Y031948*
X022215Y031946*
X022201Y031944*
X022188Y031940*
X022175Y031935*
X022162Y031929*
X022150Y031923*
X022138Y031915*
X022126Y031907*
X022116Y031898*
X022106Y031888*
X022096Y031878*
X022088Y031867*
X022080Y031855*
X022073Y031843*
X022067Y031831*
X022062Y031818*
X022057Y031805*
X022054Y031791*
X022051Y031777*
X022050Y031763*
X022050Y031750*
X022050Y031736*
X022051Y031722*
X022054Y031708*
X022057Y031694*
X022062Y031681*
X022067Y031668*
X022073Y031656*
X022080Y031644*
X022088Y031632*
X022096Y031621*
X022106Y031611*
X022116Y031601*
X022126Y031592*
X022138Y031584*
X022150Y031576*
X022162Y031570*
X022175Y031564*
X022188Y031559*
X022201Y031555*
X022215Y031553*
X022229Y031551*
X022243Y031550*
X022256*
X022270Y031551*
X022284Y031553*
X022298Y031555*
X022311Y031559*
X022324Y031564*
X022337Y031570*
X022350Y031576*
X022361Y031584*
X022373Y031592*
X022383Y031601*
X022393Y031611*
X022403Y031621*
X022411Y031632*
X022419Y031644*
X022426Y031656*
X022432Y031668*
X022437Y031681*
X022442Y031694*
X022445Y031708*
X022448Y031722*
X022449Y031736*
X022450Y031750*
M02*