%FSAX24Y24*%
%MOIN*%
G70*
G01*
G75*
G04 Layer_Color=255*
%ADD10R,0.0433X0.0551*%
%ADD11C,0.0315*%
%ADD12C,0.0100*%
%ADD13R,0.0591X0.0591*%
%ADD14C,0.0591*%
%ADD15R,0.0591X0.0591*%
%ADD16R,0.0669X0.0669*%
%ADD17C,0.0669*%
%ADD18C,0.0500*%
D13*
X023400Y028200D02*
D03*
X023500Y022900D02*
D03*
X036950Y016300D02*
D03*
X023450Y017400D02*
D03*
D14*
X023400Y027200D02*
D03*
Y026200D02*
D03*
Y025200D02*
D03*
X023500Y021900D02*
D03*
Y020900D02*
D03*
Y019900D02*
D03*
X036950Y017300D02*
D03*
Y018300D02*
D03*
Y019300D02*
D03*
X034650Y014300D02*
D03*
Y015300D02*
D03*
Y016300D02*
D03*
Y017300D02*
D03*
Y018300D02*
D03*
Y019300D02*
D03*
Y020300D02*
D03*
Y021300D02*
D03*
Y022300D02*
D03*
Y023300D02*
D03*
Y024300D02*
D03*
Y025300D02*
D03*
Y026300D02*
D03*
Y027300D02*
D03*
Y028300D02*
D03*
Y029300D02*
D03*
Y030300D02*
D03*
Y031300D02*
D03*
Y032300D02*
D03*
Y033300D02*
D03*
X025650Y014300D02*
D03*
Y015300D02*
D03*
Y016300D02*
D03*
Y017300D02*
D03*
Y018300D02*
D03*
Y019300D02*
D03*
Y020300D02*
D03*
Y021300D02*
D03*
Y022300D02*
D03*
Y023300D02*
D03*
Y024300D02*
D03*
Y025300D02*
D03*
Y026300D02*
D03*
Y027300D02*
D03*
Y028300D02*
D03*
Y029300D02*
D03*
Y030300D02*
D03*
Y031300D02*
D03*
Y032300D02*
D03*
X023450Y016400D02*
D03*
Y015400D02*
D03*
Y014400D02*
D03*
X024300Y033800D02*
D03*
D15*
X025650Y033300D02*
D03*
X023300Y033800D02*
D03*
D16*
X024250Y031750D02*
D03*
D17*
X023250D02*
D03*
X022250D02*
D03*
M02*
