%FSDAX24Y24*%
%MOIN*%
%SFA1B1*%

%IPPOS*%
%ADD10R,0.043300X0.055100*%
%ADD11C,0.031500*%
%ADD12C,0.010000*%
%ADD13R,0.059100X0.059100*%
%ADD14C,0.059100*%
%ADD15R,0.059100X0.059100*%
%ADD16R,0.066900X0.066900*%
%ADD17C,0.066900*%
%ADD18C,0.050000*%
%ADD31C,0.005000*%
%LNcarteasserv-1*%
%LPD*%
G54D31*
X024798Y022055D02*
X024754D01*
Y022289*
X024798*
Y022055*
X024748Y022105D02*
X024804D01*
Y022239*
X024748*
Y022105*
X024862Y014592D02*
X024863Y014591D01*
X024872Y014589*
X024880Y014584*
X024894Y014580*
X024905Y014576*
X024917Y014569*
X024947Y014555*
X024977Y014535*
X025005Y014514*
X025016Y014502*
X025027Y014491*
X025026Y014491*
X025029Y014486*
X025033Y014481*
X025036Y014477*
X025041Y014468*
X025047Y014459*
X025052Y014450*
X025056Y014440*
X025063Y014425*
X025068Y014411*
X025073Y014395*
X025077Y014380*
X025085Y014344*
X025087Y014325*
X025088Y014303*
X025088Y014304*
Y014299*
Y014295*
X025087Y014285*
Y014276*
X025085Y014266*
X025083Y014251*
X025082Y014238*
X025075Y014208*
X025068Y014176*
X025055Y014146*
X025049Y014132*
X025041Y014118*
X025039Y014115*
X025041Y014118*
X025037Y014114*
X025034Y014108*
X025023Y014095*
X025008Y014080*
X024990Y014062*
X024966Y014045*
X024939Y014026*
X024913Y014012*
X024942Y014020*
X024905Y014011*
X024899Y014008*
X024894Y014006*
X024886Y014003*
X024875Y014000*
X024865Y013997*
X024851Y013994*
X024838Y013990*
X024823Y013987*
X024788Y013980*
X024754Y013975*
X024715Y013974*
X024706Y013975*
X024697Y013976*
X024686*
X024674Y013976*
X024664Y013977*
X024650Y013980*
X024617Y013986*
X024585Y013992*
X024552Y014003*
X024515Y014018*
X024519Y014018*
X024520Y014017*
X024514Y014021*
X024507Y014024*
X024501Y014028*
X024494Y014033*
X024475Y014047*
X024454Y014064*
X024434Y014084*
X024414Y014108*
X024399Y014129*
X024395Y014139*
X024393Y014142*
X024392Y014146*
X024388Y014156*
X024383Y014164*
X024380Y014173*
X024376Y014185*
X024372Y014197*
X024369Y014209*
X024361Y014239*
X024356Y014271*
X024354Y014307*
X024355Y014307*
Y014311*
Y014316*
X024355Y014322*
X024356Y014332*
X024357Y014344*
X024358Y014355*
X024361Y014367*
X024368Y014396*
X024377Y014426*
X024383Y014441*
X024390Y014455*
X024398Y014469*
X024408Y014481*
X024410Y014484*
X024413Y014489*
X024412Y014488*
X024416Y014492*
X024422Y014498*
X024430Y014506*
X024438Y014513*
X024446Y014521*
X024457Y014530*
X024467Y014537*
X024480Y014545*
X024494Y014554*
X024508Y014561*
X024523Y014568*
X024533Y014572*
X024561Y014516*
X024576Y014536*
X024562Y014529*
X024557Y014528*
X024549Y014524*
X024542Y014521*
X024533Y014517*
X024516Y014509*
X024496Y014498*
X024473Y014483*
X024451Y014466*
X024430Y014442*
X024429Y014438*
X024425Y014432*
X024419Y014421*
X024411Y014405*
X024403Y014386*
X024396Y014361*
X024391Y014335*
X024390Y014304*
X024390Y014303*
Y014301*
Y014293*
X024391Y014287*
Y014280*
X024392Y014270*
X024396Y014248*
X024400Y014223*
X024410Y014197*
X024421Y014170*
X024434Y014152*
X024438Y014142*
X024441Y014139*
X024447Y014132*
X024456Y014121*
X024471Y014107*
X024489Y014094*
X024508Y014079*
X024534Y014064*
X024566Y014052*
X024563Y014053*
X024565Y014052*
X024569Y014051*
X024574Y014049*
X024583Y014046*
X024592Y014045*
X024610Y014040*
X024633Y014036*
X024658Y014032*
X024686Y014030*
X024715Y014029*
X024733Y014029*
X024741Y014030*
X024752*
X024763Y014031*
X024775Y014032*
X024802Y014036*
X024832Y014040*
X024863Y014047*
X024888Y014056*
X024896*
X024903Y014063*
X024904Y014064*
X024905Y014063*
X024921Y014070*
X024938Y014081*
X024958Y014095*
X024976Y014111*
X024996Y014130*
X025015Y014160*
X025013Y014154*
X025014Y014155*
X025018Y014162*
X025020Y014166*
X025025Y014181*
X025033Y014198*
X025039Y014218*
X025046Y014241*
X025050Y014269*
X025051Y014296*
X025052Y014298*
Y014301*
Y014307*
X025051Y014313*
Y014319*
X025049Y014329*
X025046Y014352*
X025039Y014376*
X025029Y014403*
X025016Y014428*
X024998Y014455*
X024995Y014457*
X024994Y014458*
X024986Y014466*
X024974Y014477*
X024957Y014491*
X024935Y014505*
X024908Y014520*
X024875Y014532*
X024865Y014535*
X024872Y014603*
X024861Y014594*
X024862Y014592*
X024600Y013990D02*
X024840D01*
X024500Y014040D02*
X024600D01*
X024840D02*
X024950D01*
X024440Y014090D02*
X024480D01*
X024960D02*
X025010D01*
X024400Y014140D02*
X024430D01*
X025020D02*
X025050D01*
X024390Y014190D02*
X024410D01*
X025040D02*
X025070D01*
X024370Y014240D02*
X024390D01*
X025060D02*
X025070D01*
X024370Y014290D02*
X024380D01*
X025060D02*
X025090D01*
X024370Y014340D02*
X024380D01*
X025060D02*
X025090D01*
X024380Y014390D02*
X024390D01*
X025050D02*
X025070D01*
X024390Y014440D02*
X024420D01*
X025030D02*
X025050D01*
X024430Y014490D02*
X024480D01*
X024970D02*
X025020D01*
X024480Y014540D02*
X024540D01*
X024880D02*
X024970D01*
X024870Y014590D02*
X024860D01*
X025075Y015698D02*
X024991D01*
X025014Y015652*
X025023Y015647*
X025028Y015642*
X025033Y015639*
X025038Y015633*
X025044Y015626*
X025051Y015618*
X025058Y015608*
X025065Y015597*
X025071Y015587*
X025077Y015576*
X025081Y015563*
X025084Y015550*
X025087Y015535*
X025088Y015517*
X025088Y015518*
Y015516*
Y015515*
X025087Y015512*
X025085Y015498*
X025083Y015484*
X025078Y015466*
X025074Y015449*
X025065Y015429*
X025053Y015403*
X025054Y015410*
X025057Y015412*
X025051Y015405*
X025043Y015396*
X025031Y015383*
X025020Y015372*
X025004Y015359*
X024987Y015348*
X024970Y015339*
X024969*
X024961Y015335*
X024959Y015334*
X024955Y015332*
X024952Y015331*
X024944Y015329*
X024925Y015322*
X024905Y015317*
X024882Y015313*
X024855Y015309*
X024826Y015308*
X024814Y015309*
X024807Y015310*
X024798*
X024780Y015311*
X024758Y015315*
X024735Y015320*
X024709Y015325*
X024682Y015335*
X024685Y015334*
X024686Y015334*
X024681Y015336*
X024676Y015338*
X024667Y015343*
X024653Y015351*
X024637Y015363*
X024621Y015375*
X024607Y015389*
X024599Y015400*
Y015404*
X024592Y015411*
X024589Y015414*
X024585Y015423*
X024579Y015437*
X024573Y015454*
X024568Y015472*
X024564Y015493*
X024562Y015516*
X024563Y015516*
Y015517*
X024564Y015530*
X024565Y015540*
X024568Y015550*
X024571Y015564*
X024576Y015577*
X024582Y015591*
X024583Y015592*
X024585Y015595*
X024588Y015602*
X024595Y015610*
X024601Y015619*
X024609Y015628*
X024619Y015637*
X024684Y015691*
X024367*
Y015734*
X025075*
Y015698*
X024720Y015330D02*
X024950D01*
X024630Y015380D02*
X025020D01*
X024600Y015430D02*
X025060D01*
X024580Y015480D02*
X025070D01*
X024570Y015530D02*
X025090D01*
X024590Y015580D02*
X025070D01*
X024620Y015630D02*
X025030D01*
X024680Y015680D02*
X024990D01*
X024975Y025775D02*
X024267D01*
Y025825*
X024975*
Y025775*
X024925Y025825D02*
X024317D01*
X024292Y025800*
X024925Y025776*
Y025825*
X024748Y027355D02*
X024704D01*
Y027589*
X024748*
Y027355*
X024698Y027405D02*
X024754D01*
Y027539*
X024698*
Y027405*
X025025Y020475D02*
X024317D01*
Y020525*
X025025*
Y020475*
X024975Y020525D02*
X024367D01*
X024342Y020500*
X024975Y020476*
Y020525*
X035712Y018742D02*
X035713Y018741D01*
X035722Y018739*
X035730Y018734*
X035744Y018730*
X035755Y018726*
X035767Y018719*
X035797Y018705*
X035827Y018685*
X035855Y018664*
X035866Y018652*
X035877Y018641*
X035876Y018641*
X035879Y018636*
X035883Y018631*
X035886Y018627*
X035891Y018618*
X035897Y018609*
X035902Y018600*
X035906Y018590*
X035913Y018575*
X035918Y018561*
X035923Y018545*
X035927Y018530*
X035935Y018494*
X035937Y018475*
X035938Y018453*
X035938Y018454*
Y018449*
Y018445*
X035937Y018435*
Y018426*
X035935Y018416*
X035933Y018401*
X035932Y018388*
X035925Y018358*
X035918Y018326*
X035905Y018296*
X035899Y018282*
X035891Y018268*
X035889Y018265*
X035891Y018268*
X035887Y018264*
X035884Y018258*
X035873Y018245*
X035858Y018230*
X035840Y018212*
X035816Y018195*
X035789Y018176*
X035763Y018162*
X035792Y018170*
X035755Y018161*
X035749Y018158*
X035744Y018156*
X035736Y018153*
X035725Y018150*
X035715Y018147*
X035701Y018144*
X035688Y018140*
X035673Y018137*
X035638Y018130*
X035604Y018125*
X035565Y018124*
X035556Y018125*
X035547Y018126*
X035536*
X035524Y018126*
X035514Y018127*
X035500Y018130*
X035467Y018136*
X035435Y018142*
X035402Y018153*
X035365Y018168*
X035369Y018168*
X035370Y018167*
X035364Y018171*
X035357Y018174*
X035351Y018178*
X035344Y018183*
X035325Y018197*
X035304Y018214*
X035284Y018234*
X035264Y018258*
X035249Y018279*
X035245Y018289*
X035243Y018292*
X035242Y018296*
X035238Y018306*
X035233Y018314*
X035230Y018323*
X035226Y018335*
X035222Y018347*
X035219Y018359*
X035211Y018389*
X035206Y018421*
X035204Y018457*
X035205Y018457*
Y018461*
Y018466*
X035205Y018472*
X035206Y018482*
X035207Y018494*
X035208Y018505*
X035211Y018517*
X035218Y018546*
X035227Y018576*
X035233Y018591*
X035240Y018605*
X035248Y018619*
X035258Y018631*
X035260Y018634*
X035263Y018639*
X035262Y018638*
X035266Y018642*
X035272Y018648*
X035280Y018656*
X035288Y018663*
X035296Y018671*
X035307Y018680*
X035317Y018687*
X035330Y018695*
X035344Y018704*
X035358Y018711*
X035373Y018718*
X035383Y018722*
X035411Y018666*
X035426Y018686*
X035412Y018679*
X035407Y018678*
X035399Y018674*
X035392Y018671*
X035383Y018667*
X035366Y018659*
X035346Y018648*
X035323Y018633*
X035301Y018616*
X035280Y018592*
X035279Y018588*
X035275Y018582*
X035269Y018571*
X035261Y018555*
X035253Y018536*
X035246Y018511*
X035241Y018485*
X035240Y018454*
X035240Y018453*
Y018451*
Y018443*
X035241Y018437*
Y018430*
X035242Y018420*
X035246Y018398*
X035250Y018373*
X035260Y018347*
X035271Y018320*
X035284Y018302*
X035288Y018292*
X035291Y018289*
X035297Y018282*
X035306Y018271*
X035321Y018257*
X035339Y018244*
X035358Y018229*
X035384Y018214*
X035416Y018202*
X035413Y018203*
X035415Y018202*
X035419Y018201*
X035424Y018199*
X035433Y018196*
X035442Y018195*
X035460Y018190*
X035483Y018186*
X035508Y018182*
X035536Y018180*
X035565Y018179*
X035583Y018179*
X035591Y018180*
X035602*
X035613Y018181*
X035625Y018182*
X035652Y018186*
X035682Y018190*
X035713Y018197*
X035738Y018206*
X035746*
X035753Y018213*
X035754Y018214*
X035755Y018213*
X035771Y018220*
X035788Y018231*
X035808Y018245*
X035826Y018261*
X035846Y018280*
X035865Y018310*
X035863Y018304*
X035864Y018305*
X035868Y018312*
X035870Y018316*
X035875Y018331*
X035883Y018348*
X035889Y018368*
X035896Y018391*
X035900Y018419*
X035901Y018446*
X035902Y018448*
Y018451*
Y018457*
X035901Y018463*
Y018469*
X035899Y018479*
X035896Y018502*
X035889Y018526*
X035879Y018553*
X035866Y018578*
X035848Y018605*
X035845Y018607*
X035844Y018608*
X035836Y018616*
X035824Y018627*
X035807Y018641*
X035785Y018655*
X035758Y018670*
X035725Y018682*
X035715Y018685*
X035722Y018753*
X035711Y018744*
X035712Y018742*
X035450Y018140D02*
X035690D01*
X035350Y018190D02*
X035450D01*
X035690D02*
X035800D01*
X035290Y018240D02*
X035330D01*
X035810D02*
X035860D01*
X035250Y018290D02*
X035280D01*
X035870D02*
X035900D01*
X035240Y018340D02*
X035260D01*
X035890D02*
X035920D01*
X035220Y018390D02*
X035240D01*
X035910D02*
X035920D01*
X035220Y018440D02*
X035230D01*
X035910D02*
X035940D01*
X035220Y018490D02*
X035230D01*
X035910D02*
X035940D01*
X035230Y018540D02*
X035240D01*
X035900D02*
X035920D01*
X035240Y018590D02*
X035270D01*
X035880D02*
X035900D01*
X035280Y018640D02*
X035330D01*
X035820D02*
X035870D01*
X035330Y018690D02*
X035390D01*
X035730D02*
X035820D01*
X035720Y018740D02*
X035710D01*
X035925Y021028D02*
X035764D01*
X035857Y020981*
X035857Y020981*
X035863Y020976*
X035867Y020972*
X035874Y020967*
X035880Y020959*
X035889Y020951*
X035897Y020941*
X035904Y020931*
X035912Y020920*
X035918Y020907*
X035925Y020892*
X035931Y020878*
X035934Y020863*
X035937Y020846*
X035938Y020827*
X035938Y020827*
Y020822*
X035937Y020815*
X035935Y020802*
X035933Y020789*
X035930Y020776*
X035926Y020762*
X035920Y020746*
X035920Y020746*
X035918Y020742*
X035915Y020736*
X035910Y020728*
X035904Y020719*
X035897Y020710*
X035890Y020703*
X035880Y020694*
X035880Y020693*
X035879Y020693*
X035875Y020691*
X035867Y020687*
X035857Y020682*
X035847Y020678*
X035837Y020674*
X035826Y020671*
X035812Y020669*
X035820Y020671*
X035815*
X035805Y020669*
X035794Y020669*
X035779*
X035761Y020667*
X035426*
Y020711*
X035731*
X035746Y020712*
X035762*
X035779Y020713*
X035794Y020714*
X035806Y020715*
X035813Y020717*
X035816Y020718*
X035824Y020721*
X035835Y020725*
X035847Y020731*
X035860Y020740*
X035871Y020750*
X035877Y020756*
X035883Y020759*
X035888Y020772*
X035891Y020777*
X035896Y020787*
X035899Y020799*
X035904Y020813*
X035906Y020830*
X035908Y020847*
Y020850*
Y020856*
X035906Y020866*
X035905Y020876*
X035903Y020890*
X035897Y020905*
X035892Y020920*
X035882Y020939*
X035880Y020942*
X035872Y020953*
X035864Y020963*
X035855Y020972*
X035842Y020983*
X035828Y020991*
X035814Y020999*
X035807Y021002*
X035803Y021003*
X035795Y021005*
X035782Y021009*
X035765Y021012*
X035744Y021015*
X035722Y021016*
X035696Y021017*
X035426Y021018*
Y021061*
X035925*
Y021028*
X035440Y020690D02*
X035870D01*
Y020740D02*
X035910D01*
Y020790D02*
X035920D01*
Y020840D02*
X035940D01*
X035910Y020890D02*
X035920D01*
X035890Y020940D02*
D01*
X035840Y020990D02*
X035830D01*
X035440Y021040D02*
X035910D01*
X035925Y019848D02*
X035841D01*
X035864Y019802*
X035873Y019797*
X035878Y019792*
X035883Y019789*
X035888Y019783*
X035894Y019776*
X035901Y019768*
X035908Y019758*
X035915Y019747*
X035921Y019737*
X035927Y019726*
X035931Y019713*
X035934Y019700*
X035937Y019685*
X035938Y019667*
X035938Y019668*
Y019666*
Y019665*
X035937Y019662*
X035935Y019648*
X035933Y019634*
X035928Y019616*
X035924Y019599*
X035915Y019579*
X035903Y019553*
X035904Y019560*
X035907Y019562*
X035901Y019555*
X035893Y019546*
X035881Y019533*
X035870Y019522*
X035854Y019509*
X035837Y019498*
X035820Y019489*
X035819*
X035811Y019485*
X035809Y019484*
X035805Y019482*
X035802Y019481*
X035794Y019479*
X035775Y019472*
X035755Y019467*
X035732Y019463*
X035705Y019459*
X035676Y019458*
X035664Y019459*
X035657Y019460*
X035648*
X035630Y019461*
X035608Y019465*
X035585Y019470*
X035559Y019475*
X035532Y019485*
X035535Y019484*
X035536Y019484*
X035531Y019486*
X035526Y019488*
X035517Y019493*
X035503Y019501*
X035487Y019513*
X035471Y019525*
X035457Y019539*
X035449Y019550*
Y019554*
X035442Y019561*
X035439Y019564*
X035435Y019573*
X035429Y019587*
X035423Y019604*
X035418Y019622*
X035414Y019643*
X035412Y019666*
X035413Y019666*
Y019667*
X035414Y019680*
X035415Y019690*
X035418Y019700*
X035421Y019714*
X035426Y019727*
X035432Y019741*
X035433Y019742*
X035435Y019745*
X035438Y019752*
X035445Y019760*
X035451Y019769*
X035459Y019778*
X035469Y019787*
X035534Y019841*
X035217*
Y019884*
X035925*
Y019848*
X035570Y019480D02*
X035800D01*
X035480Y019530D02*
X035870D01*
X035450Y019580D02*
X035910D01*
X035430Y019630D02*
X035920D01*
X035420Y019680D02*
X035940D01*
X035440Y019730D02*
X035920D01*
X035470Y019780D02*
X035880D01*
X035530Y019830D02*
X035840D01*
X024975Y018104D02*
X024976Y018102D01*
X024983Y018095*
X024984Y018093*
X024989Y018086*
X024994Y018079*
X025007Y018059*
X025020Y018037*
X025034Y018013*
X025048Y017985*
X025060Y017961*
X025062Y017953*
X025061Y017953*
X025062Y017952*
X025064Y017944*
X025067Y017937*
X025068Y017932*
X025070Y017922*
X025073Y017911*
X025078Y017887*
X025083Y017862*
X025087Y017834*
X025088Y017806*
X025088Y017806*
Y017802*
Y017797*
X025087Y017789*
Y017780*
X025085Y017769*
X025084Y017756*
X025082Y017744*
X025076Y017713*
X025068Y017680*
X025058Y017647*
X025044Y017618*
X025042Y017616*
X025039Y017608*
X025039Y017607*
X025034Y017602*
X025030Y017594*
X025026Y017588*
X025011Y017568*
X024993Y017547*
X024970Y017527*
X024944Y017506*
X024921Y017490*
X024911Y017486*
X024909Y017485*
X024911Y017485*
X024902Y017483*
X024893Y017478*
X024885Y017475*
X024874Y017471*
X024860Y017467*
X024847Y017463*
X024832Y017460*
X024799Y017451*
X024764Y017447*
X024724Y017446*
X024716*
X024708Y017447*
X024697*
X024687Y017447*
X024674Y017448*
X024662Y017450*
X024631Y017456*
X024598Y017464*
X024563Y017475*
X024523Y017491*
X024526Y017490*
X024525Y017491*
X024521Y017493*
X024515Y017496*
X024509Y017500*
X024501Y017506*
X024479Y017520*
X024458Y017538*
X024437Y017558*
X024416Y017584*
X024406Y017596*
X024404Y017597*
X024413Y017590*
X024396Y017616*
X024391Y017626*
X024389Y017631*
X024385Y017642*
X024380Y017652*
X024376Y017664*
X024373Y017677*
X024369Y017692*
X024361Y017724*
X024356Y017759*
X024354Y017800*
X024355Y017800*
Y017802*
Y017807*
Y017810*
X024356Y017816*
Y017827*
X024357Y017844*
X024361Y017865*
X024365Y017890*
X024371Y017913*
X024381Y017941*
X024380Y017937*
X024381Y017938*
X024383Y017944*
X024384Y017947*
X024389Y017956*
X024398Y017971*
X024407Y017988*
X024419Y018003*
X024432Y018018*
X024443Y018028*
X024447Y018030*
X024454Y018037*
X024463Y018042*
X024477Y018051*
X024493Y018059*
X024512Y018068*
X024534Y018077*
X024537Y018078*
X024567Y018027*
X024603Y018077*
X024564Y018039*
X024563Y018038*
X024551Y018034*
X024538Y018029*
X024523Y018022*
X024507Y018016*
X024489Y018007*
X024472Y017995*
X024470Y017992*
X024467Y017991*
X024459Y017983*
X024449Y017974*
X024440Y017961*
X024431Y017948*
X024421Y017932*
X024412Y017913*
X024408Y017904*
X024405Y017892*
X024400Y017879*
X024397Y017862*
X024394Y017844*
X024391Y017823*
X024390Y017800*
X024390Y017799*
Y017796*
Y017793*
Y017786*
X024391Y017773*
X024392Y017756*
X024396Y017736*
X024399Y017714*
X024406Y017693*
X024413Y017671*
X024417Y017662*
X024423Y017651*
X024430Y017638*
X024439Y017626*
X024448Y017611*
X024461Y017596*
X024476Y017579*
X024482Y017576*
X024482Y017576*
X024489Y017570*
X024499Y017562*
X024512Y017554*
X024525Y017545*
X024540Y017537*
X024561Y017529*
X024558Y017529*
X024563Y017528*
X024566Y017527*
X024570Y017525*
X024577Y017522*
X024587Y017519*
X024605Y017514*
X024629Y017509*
X024656Y017504*
X024687Y017500*
X024719Y017499*
X024730Y017499*
X024738Y017500*
X024747*
X024758Y017502*
X024769Y017503*
X024780Y017504*
X024810Y017507*
X024841Y017514*
X024870Y017523*
X024894Y017535*
X024908Y017538*
X024905Y017537*
X024911Y017541*
X024917Y017546*
X024927Y017553*
X024943Y017564*
X024960Y017579*
X024980Y017598*
X024998Y017621*
X025015Y017652*
X025017Y017656*
X025020Y017666*
X025021Y017667*
X025025Y017676*
X025031Y017694*
X025038Y017718*
X025043Y017742*
X025047Y017770*
X025048Y017800*
X025049Y017802*
Y017804*
Y017808*
Y017814*
X025047Y017828*
X025044Y017844*
X025042Y017863*
X025038Y017887*
X025031Y017912*
X025024Y017932*
X025022Y017942*
X025019Y017944*
X025019Y017945*
X025017Y017948*
X025013Y017959*
X025006Y017975*
X024996Y017991*
X024987Y018007*
X024976Y018024*
X024956Y018047*
X024778*
Y017825*
X024739*
Y018095*
X024984*
X024975Y018104*
X024590Y017470D02*
X024860D01*
X024490Y017520D02*
X024570D01*
X024880D02*
X024950D01*
X024440Y017570D02*
X024480D01*
X024960D02*
X025000D01*
X024410Y017620D02*
X024440D01*
X025010D02*
X025030D01*
X024390Y017670D02*
X024400D01*
X025030D02*
X025060D01*
X024370Y017720D02*
X024390D01*
X025050D02*
X025070D01*
X024370Y017770D02*
X024380D01*
X025060D02*
X025090D01*
X024370Y017820D02*
X024380D01*
X024750D02*
X024770D01*
X025060D02*
X025090D01*
X024370Y017870D02*
X024390D01*
X024750D02*
X024770D01*
X025050D02*
X025070D01*
X024390Y017920D02*
X024410D01*
X024750D02*
X024770D01*
X025040D02*
X025060D01*
X024410Y017970D02*
X024440D01*
X024750D02*
X024770D01*
X025020D02*
X025050D01*
X024440Y018020D02*
X024510D01*
X024750D02*
X024770D01*
X024990D02*
X025020D01*
X024520Y018070D02*
X024540D01*
X024600D02*
X024590D01*
X024750D02*
X024990D01*
X035587Y022195D02*
X035597D01*
X035616Y022194*
X035638Y022191*
X035664Y022187*
X035689Y022182*
X035717Y022175*
X035714Y022175*
X035714Y022175*
X035720Y022173*
X035724Y022172*
X035734Y022168*
X035751Y022162*
X035766Y022156*
X035784Y022147*
X035800Y022138*
X035819Y022125*
X035819Y022125*
X035821Y022123*
X035830Y022117*
X035840Y022108*
X035849Y022099*
X035860Y022089*
X035870Y022077*
X035883Y022059*
X035881Y022060*
X035886Y022051*
X035891Y022042*
X035897Y022031*
X035902Y022017*
X035908Y022001*
X035912Y021985*
Y021981*
X035915Y021973*
X035916Y021966*
X035918Y021950*
X035920Y021934*
X035923Y021913*
X035924Y021891*
X035925Y021867*
X035925Y021621*
X035217*
Y021855*
Y021856*
Y021859*
Y021863*
Y021870*
Y021877*
Y021884*
X035218Y021904*
X035219Y021925*
X035221Y021946*
X035225Y021967*
X035228Y021987*
X035228Y021986*
X035229Y021990*
X035229Y021989*
X035230Y021992*
X035234Y022004*
X035240Y022018*
X035246Y022035*
X035254Y022051*
X035264Y022068*
X035280Y022093*
X035277Y022082*
X035276Y022081*
X035285Y022094*
X035295Y022103*
X035309Y022114*
X035327Y022129*
X035347Y022142*
X035371Y022155*
X035393Y022166*
X035395*
X035400Y022168*
X035404Y022168*
X035411Y022171*
X035416Y022174*
X035425Y022175*
X035435Y022179*
X035444Y022181*
X035458Y022183*
X035472Y022187*
X035500Y022191*
X035531Y022195*
X035567Y022196*
X035580*
X035587Y022195*
X035230Y021640D02*
X035930D01*
X035230Y021690D02*
X035930D01*
X035230Y021740D02*
X035930D01*
X035230Y021790D02*
X035930D01*
X035230Y021840D02*
X035930D01*
X035230Y021890D02*
X035910D01*
X035230Y021940D02*
X035910D01*
X035240Y021990D02*
X035900D01*
X035260Y022040D02*
X035880D01*
X035300Y022090D02*
X035850D01*
X035360Y022140D02*
X035790D01*
X035510Y022190D02*
X035580D01*
X025075Y016878D02*
X024914D01*
X025007Y016831*
X025007Y016831*
X025013Y016826*
X025017Y016822*
X025024Y016817*
X025030Y016809*
X025039Y016801*
X025047Y016791*
X025054Y016781*
X025062Y016770*
X025068Y016757*
X025075Y016742*
X025081Y016728*
X025084Y016713*
X025087Y016696*
X025088Y016677*
X025088Y016677*
Y016672*
X025087Y016665*
X025085Y016652*
X025083Y016639*
X025080Y016626*
X025076Y016612*
X025070Y016596*
X025070Y016596*
X025068Y016592*
X025065Y016586*
X025060Y016578*
X025054Y016569*
X025047Y016560*
X025040Y016553*
X025030Y016544*
X025030Y016543*
X025029Y016543*
X025025Y016541*
X025017Y016537*
X025007Y016532*
X024997Y016528*
X024987Y016524*
X024976Y016521*
X024962Y016519*
X024970Y016521*
X024965*
X024955Y016519*
X024944Y016519*
X024929*
X024911Y016517*
X024576*
Y016561*
X024881*
X024896Y016562*
X024912*
X024929Y016563*
X024944Y016564*
X024956Y016565*
X024963Y016567*
X024966Y016568*
X024974Y016571*
X024985Y016575*
X024997Y016581*
X025010Y016590*
X025021Y016600*
X025027Y016606*
X025033Y016609*
X025038Y016622*
X025041Y016627*
X025046Y016637*
X025049Y016649*
X025054Y016663*
X025056Y016680*
X025058Y016697*
Y016700*
Y016706*
X025056Y016716*
X025055Y016726*
X025053Y016740*
X025047Y016755*
X025042Y016770*
X025032Y016789*
X025030Y016792*
X025022Y016803*
X025014Y016813*
X025005Y016822*
X024992Y016833*
X024978Y016841*
X024964Y016849*
X024957Y016852*
X024953Y016853*
X024945Y016855*
X024932Y016859*
X024915Y016862*
X024894Y016865*
X024872Y016866*
X024846Y016867*
X024576Y016868*
Y016911*
X025075*
Y016878*
X024590Y016540D02*
X025020D01*
Y016590D02*
X025060D01*
Y016640D02*
X025070D01*
Y016690D02*
X025090D01*
X025060Y016740D02*
X025070D01*
X025040Y016790D02*
D01*
X024990Y016840D02*
X024980D01*
X024590Y016890D02*
X025060D01*
X035470Y021482D02*
X035481Y021505D01*
X035479Y021502*
X035474Y021492*
X035471Y021483*
X035467Y021471*
X035463Y021459*
X035460Y021443*
X035459Y021429*
Y021426*
Y021420*
X035460Y021413*
X035461Y021402*
X035465Y021392*
X035469Y021381*
X035475Y021370*
X035483Y021357*
X035486Y021354*
X035488Y021352*
X035494Y021346*
X035500Y021341*
X035508Y021334*
X035521Y021326*
X035533Y021321*
X035545Y021316*
X035549Y021315*
X035555Y021314*
X035567Y021310*
X035582Y021308*
X035598Y021305*
X035618Y021302*
X035639Y021301*
X035662Y021300*
X035925*
Y021257*
X035426*
Y021291*
X035543*
X035497Y021337*
X035487Y021342*
X035477Y021348*
X035466Y021355*
X035455Y021362*
X035443Y021373*
X035433Y021381*
X035429Y021386*
X035428Y021387*
X035426Y021390*
X035424Y021395*
X035420Y021403*
X035417Y021408*
X035416Y021414*
X035414Y021426*
X035413Y021435*
Y021436*
X035414Y021446*
X035416Y021456*
X035420Y021469*
X035424Y021484*
X035431Y021499*
X035430Y021498*
X035470Y021482*
X035440Y021280D02*
X035920D01*
X035440Y021380D02*
X035460D01*
X035420Y021430D02*
X035450D01*
X035430Y021480D02*
X035460D01*
X024620Y017332D02*
X024631Y017355D01*
X024629Y017352*
X024624Y017342*
X024621Y017333*
X024617Y017321*
X024613Y017309*
X024610Y017293*
X024609Y017279*
Y017276*
Y017270*
X024610Y017263*
X024611Y017252*
X024615Y017242*
X024619Y017231*
X024625Y017220*
X024633Y017207*
X024636Y017204*
X024638Y017202*
X024644Y017196*
X024650Y017191*
X024658Y017184*
X024671Y017176*
X024683Y017171*
X024695Y017166*
X024699Y017165*
X024705Y017164*
X024717Y017160*
X024732Y017158*
X024748Y017155*
X024768Y017152*
X024789Y017151*
X024812Y017150*
X025075*
Y017107*
X024576*
Y017141*
X024693*
X024647Y017187*
X024637Y017192*
X024627Y017198*
X024616Y017205*
X024605Y017212*
X024593Y017223*
X024583Y017231*
X024579Y017236*
X024578Y017237*
X024576Y017240*
X024574Y017245*
X024570Y017253*
X024567Y017258*
X024566Y017264*
X024564Y017276*
X024563Y017285*
Y017286*
X024564Y017296*
X024566Y017306*
X024570Y017319*
X024574Y017334*
X024581Y017349*
X024580Y017348*
X024620Y017332*
X024590Y017130D02*
X025070D01*
X024590Y017230D02*
X024610D01*
X024570Y017280D02*
X024600D01*
X024580Y017330D02*
X024610D01*
%LNcarteasserv-2*%
%LPC*%
G36*
X035566Y022117D02*
X035546D01*
X035536Y022116*
X035525Y022115*
X035512Y022114*
X035499Y022112*
X035469Y022108*
X035439Y022101*
X035410Y022091*
X035397Y022085*
X035384Y022078*
X035383*
X035382Y022076*
X035378Y022074*
X035373Y022071*
X035362Y022063*
X035349Y022051*
X035334Y022037*
X035320Y022021*
X035308Y022003*
X035297Y021983*
X035296Y021981*
X035295Y021975*
X035293Y021966*
X035289Y021952*
X035286Y021934*
X035284Y021912*
X035282Y021885*
X035281Y021854*
Y021696*
X035861*
Y021856*
Y021858*
Y021860*
Y021863*
Y021869*
X035860Y021882*
X035859Y021899*
X035858Y021918*
X035855Y021937*
X035852Y021956*
X035847Y021973*
X035846Y021975*
X035845Y021980*
X035842Y021988*
X035837Y021997*
X035831Y022009*
X035825Y022020*
X035817Y022031*
X035808Y022041*
X035807Y022042*
X035801Y022047*
X035793Y022054*
X035783Y022062*
X035769Y022070*
X035753Y022079*
X035733Y022088*
X035712Y022096*
X035711*
X035710Y022097*
X035707Y022099*
X035702Y022100*
X035696Y022101*
X035689Y022103*
X035672Y022107*
X035650Y022110*
X035625Y022114*
X035597Y022116*
X035566Y022117*
G37*
G36*
X035624Y020433D02*
X035620D01*
X035617Y020431*
X035612*
X035599Y020429*
X035584Y020426*
X035568Y020421*
X035551Y020414*
X035534Y020407*
X035520Y020397*
X035519*
X035518Y020394*
X035511Y020389*
X035503Y020378*
X035492Y020366*
X035482Y020348*
X035473Y020329*
X035467Y020307*
X035466Y020294*
X035465Y020281*
Y020280*
Y020279*
Y020276*
X035466Y020271*
X035467Y020258*
X035470Y020243*
X035475Y020226*
X035483Y020209*
X035493Y020190*
X035508Y020173*
X035511Y020171*
X035516Y020166*
X035526Y020159*
X035540Y020151*
X035556Y020143*
X035575Y020135*
X035598Y020129*
X035624Y020126*
Y020433*
G37*
G36*
X024853Y015675D02*
X024824D01*
X024816Y015674*
X024807*
X024797Y015673*
X024771Y015669*
X024745Y015665*
X024717Y015656*
X024691Y015646*
X024679Y015639*
X024669Y015631*
X024668*
X024666Y015629*
X024661Y015623*
X024651Y015614*
X024642Y015601*
X024633Y015586*
X024624Y015568*
X024618Y015547*
X024616Y015535*
Y015524*
Y015523*
Y015522*
Y015518*
X024617Y015513*
X024618Y015502*
X024622Y015488*
X024628Y015472*
X024638Y015455*
X024649Y015437*
X024657Y015429*
X024666Y015421*
X024669Y015419*
X024672Y015418*
X024676Y015414*
X024681Y015412*
X024688Y015409*
X024696Y015404*
X024706Y015400*
X024716Y015397*
X024728Y015392*
X024741Y015389*
X024755Y015387*
X024771Y015383*
X024789Y015382*
X024807Y015380*
X024837*
X024844Y015381*
X024853*
X024862Y015382*
X024887Y015385*
X024912Y015390*
X024939Y015398*
X024963Y015409*
X024974Y015415*
X024985Y015424*
X024987Y015426*
X024993Y015432*
X025001Y015441*
X025010Y015454*
X025020Y015468*
X025029Y015486*
X025034Y015507*
X025035Y015517*
X025037Y015528*
Y015530*
Y015531*
Y015534*
X025035Y015539*
X025034Y015550*
X025031Y015564*
X025024Y015580*
X025016Y015598*
X025003Y015616*
X024996Y015624*
X024987Y015632*
X024986*
X024985Y015635*
X024981Y015636*
X024978Y015639*
X024972Y015643*
X024966Y015646*
X024958Y015650*
X024949Y015654*
X024940Y015658*
X024928Y015661*
X024916Y015665*
X024902Y015668*
X024887Y015671*
X024871Y015673*
X024853Y015675*
G37*
G36*
X024774Y016283D02*
X024770D01*
X024767Y016281*
X024762*
X024749Y016279*
X024734Y016276*
X024718Y016271*
X024701Y016264*
X024684Y016257*
X024670Y016247*
X024669*
X024668Y016244*
X024661Y016239*
X024653Y016228*
X024642Y016216*
X024632Y016198*
X024623Y016179*
X024617Y016157*
X024616Y016144*
X024615Y016131*
Y016130*
Y016129*
Y016126*
X024616Y016121*
X024617Y016108*
X024620Y016093*
X024625Y016076*
X024633Y016059*
X024643Y016040*
X024658Y016023*
X024661Y016021*
X024666Y016016*
X024676Y016009*
X024690Y016001*
X024706Y015993*
X024725Y015985*
X024748Y015979*
X024774Y015976*
Y016283*
G37*
G36*
X024843Y015113D02*
X024814D01*
X024806Y015112*
X024798*
X024789Y015111*
X024766Y015108*
X024741Y015102*
X024715Y015094*
X024691Y015082*
X024669Y015066*
X024668*
X024666Y015064*
X024661Y015058*
X024651Y015048*
X024642Y015035*
X024633Y015018*
X024624Y014998*
X024618Y014976*
X024616Y014965*
Y014952*
Y014951*
Y014949*
Y014945*
X024617Y014940*
X024618Y014928*
X024623Y014912*
X024628Y014893*
X024638Y014874*
X024651Y014854*
X024660Y014845*
X024669Y014835*
X024671Y014833*
X024675Y014831*
X024678Y014829*
X024684Y014825*
X024691Y014822*
X024699Y014817*
X024708Y014814*
X024718Y014809*
X024730Y014804*
X024743Y014801*
X024758Y014797*
X024773Y014795*
X024790Y014793*
X024807Y014791*
X024837*
X024844Y014792*
X024852*
X024862Y014793*
X024886Y014796*
X024911Y014802*
X024937Y014809*
X024963Y014821*
X024974Y014827*
X024985Y014835*
X024987Y014838*
X024993Y014844*
X025001Y014854*
X025010Y014868*
X025020Y014884*
X025029Y014905*
X025034Y014927*
X025035Y014939*
X025037Y014952*
Y014953*
Y014955*
Y014959*
X025035Y014963*
X025034Y014976*
X025030Y014992*
X025024Y015011*
X025015Y015030*
X025002Y015049*
X024994Y015058*
X024985Y015067*
X024984*
X024982Y015070*
X024979Y015072*
X024974Y015074*
X024969Y015078*
X024962Y015082*
X024954Y015086*
X024944Y015090*
X024934Y015095*
X024922Y015098*
X024909Y015103*
X024894Y015106*
X024879Y015109*
X024861Y015111*
X024843Y015113*
G37*
G36*
X035703Y019825D02*
X035674D01*
X035666Y019824*
X035657*
X035647Y019823*
X035621Y019819*
X035595Y019815*
X035567Y019806*
X035541Y019796*
X035529Y019789*
X035519Y019781*
X035518*
X035516Y019779*
X035511Y019773*
X035501Y019764*
X035492Y019751*
X035483Y019736*
X035474Y019718*
X035468Y019697*
X035466Y019685*
Y019674*
Y019673*
Y019672*
Y019668*
X035467Y019663*
X035468Y019652*
X035472Y019638*
X035478Y019622*
X035488Y019605*
X035499Y019587*
X035507Y019579*
X035516Y019571*
X035519Y019569*
X035522Y019568*
X035526Y019564*
X035531Y019562*
X035538Y019559*
X035546Y019554*
X035556Y019550*
X035566Y019547*
X035578Y019542*
X035591Y019539*
X035605Y019537*
X035621Y019533*
X035639Y019532*
X035657Y019530*
X035687*
X035694Y019531*
X035703*
X035712Y019532*
X035737Y019535*
X035762Y019540*
X035789Y019548*
X035813Y019559*
X035824Y019565*
X035835Y019574*
X035837Y019576*
X035843Y019582*
X035851Y019591*
X035860Y019604*
X035870Y019619*
X035879Y019636*
X035884Y019657*
X035885Y019667*
X035887Y019678*
Y019680*
Y019681*
Y019684*
X035885Y019689*
X035884Y019700*
X035881Y019714*
X035874Y019730*
X035866Y019748*
X035853Y019766*
X035846Y019774*
X035837Y019782*
X035836*
X035835Y019785*
X035831Y019786*
X035828Y019789*
X035822Y019793*
X035816Y019796*
X035808Y019800*
X035799Y019804*
X035790Y019808*
X035778Y019811*
X035766Y019815*
X035752Y019818*
X035737Y019821*
X035721Y019823*
X035703Y019825*
G37*
G36*
X035693Y019263D02*
X035664D01*
X035656Y019262*
X035648*
X035639Y019261*
X035616Y019258*
X035591Y019252*
X035565Y019244*
X035541Y019232*
X035519Y019216*
X035518*
X035516Y019214*
X035511Y019208*
X035501Y019198*
X035492Y019185*
X035483Y019168*
X035474Y019148*
X035468Y019126*
X035466Y019115*
Y019102*
Y019101*
Y019099*
Y019095*
X035467Y019090*
X035468Y019078*
X035473Y019062*
X035478Y019043*
X035488Y019024*
X035501Y019004*
X035510Y018995*
X035519Y018986*
X035521Y018983*
X035525Y018981*
X035528Y018979*
X035534Y018975*
X035541Y018972*
X035549Y018967*
X035558Y018964*
X035568Y018959*
X035580Y018954*
X035593Y018951*
X035608Y018947*
X035623Y018945*
X035640Y018943*
X035657Y018941*
X035687*
X035694Y018942*
X035702*
X035712Y018943*
X035736Y018946*
X035761Y018952*
X035787Y018959*
X035813Y018971*
X035824Y018977*
X035835Y018986*
X035837Y018988*
X035843Y018994*
X035851Y019004*
X035860Y019018*
X035870Y019034*
X035879Y019055*
X035884Y019077*
X035885Y019089*
X035887Y019102*
Y019103*
Y019105*
Y019109*
X035885Y019113*
X035884Y019126*
X035880Y019142*
X035874Y019161*
X035865Y019180*
X035852Y019199*
X035844Y019208*
X035835Y019217*
X035834*
X035832Y019220*
X035829Y019222*
X035824Y019224*
X035819Y019228*
X035812Y019232*
X035804Y019236*
X035794Y019240*
X035784Y019245*
X035772Y019248*
X035759Y019253*
X035744Y019256*
X035729Y019259*
X035711Y019261*
X035693Y019263*
G37*
%LNcarteasserv-3*%
%LPD*%
G54D10*
X023605Y029700D03*
X024195D03*
X022645D03*
X022055D03*
G54D11*
X022050Y024150D02*
X023400D01*
X022055Y024155D02*
Y029700D01*
X035700Y014200D02*
Y017300D01*
X035150Y013650D02*
X035700Y014200D01*
X025277Y013650D02*
X035150D01*
X022757Y013643D02*
X025269D01*
X022050Y014350D02*
X022757Y013643D01*
X025269D02*
X025277Y013650D01*
X022250Y032700D02*
X024950D01*
X024600Y030105D02*
Y030500D01*
X024195Y029700D02*
X024600Y030105D01*
X023605Y029700D02*
Y030595D01*
X022645Y029700D02*
X023605D01*
X022055D02*
Y030255D01*
X022250Y030450*
Y030700*
X022050Y016350D02*
Y019900D01*
Y024150*
Y014350D02*
Y016350D01*
G54D12*
X030850Y021000D02*
X029276D01*
X029800Y021525*
X029276Y022050*
X030850*
X029276Y022574D02*
X030850D01*
Y023361*
X030588Y023624*
X030325*
X030063Y023361*
Y022574*
Y023361*
X029800Y023624*
X029538*
X029276Y023361*
Y022574*
X030850Y024936D02*
Y024411D01*
X030588Y024149*
X030063*
X029800Y024411*
Y024936*
X030063Y025198*
X030325*
Y024149*
X029276Y026772D02*
X030850D01*
Y025985*
X030588Y025723*
X030063*
X029800Y025985*
Y026772*
X036700Y027100D02*
X036175D01*
X035913Y027362*
X036175Y027625*
X036700*
X036306*
Y027100*
X036700Y027887D02*
Y028281D01*
X036569Y028412*
X036438Y028281*
Y028018*
X036306Y027887*
X036175Y028018*
Y028412*
X036700Y028674D02*
Y029068D01*
X036569Y029199*
X036438Y029068*
Y028805*
X036306Y028674*
X036175Y028805*
Y029199*
X036700Y029855D02*
Y029593D01*
X036569Y029461*
X036306*
X036175Y029593*
Y029855*
X036306Y029986*
X036438*
Y029461*
X036175Y030249D02*
X036700D01*
X036438*
X036306Y030380*
X036175Y030511*
Y030642*
Y031036D02*
X036700Y031298D01*
X036175Y031560*
G54D13*
X023400Y028200D03*
X023500Y022900D03*
X036950Y016300D03*
X023450Y017400D03*
G54D14*
X023400Y027200D03*
Y026200D03*
Y025200D03*
X023500Y021900D03*
Y020900D03*
Y019900D03*
X036950Y017300D03*
Y018300D03*
Y019300D03*
X034650Y014300D03*
Y015300D03*
Y016300D03*
Y017300D03*
Y018300D03*
Y019300D03*
Y020300D03*
Y021300D03*
Y022300D03*
Y023300D03*
Y024300D03*
Y025300D03*
Y026300D03*
Y027300D03*
Y028300D03*
Y029300D03*
Y030300D03*
Y031300D03*
Y032300D03*
Y033300D03*
X025650Y014300D03*
Y015300D03*
Y016300D03*
Y017300D03*
Y018300D03*
Y019300D03*
Y020300D03*
Y021300D03*
Y022300D03*
Y023300D03*
Y024300D03*
Y025300D03*
Y026300D03*
Y027300D03*
Y028300D03*
Y029300D03*
Y030300D03*
Y031300D03*
Y032300D03*
X023450Y016400D03*
Y015400D03*
Y014400D03*
X024300Y033800D03*
G54D15*
X025650Y033300D03*
X023300Y033800D03*
G54D16*
X024250Y031750D03*
G54D17*
X023250Y031750D03*
X022250D03*
G54D18*
X024950Y032700D03*
X022250D03*
X024600Y030500D03*
X023605Y030595D03*
X022250Y030700D03*
X022050Y016350D03*
Y019900D03*
X023400Y024150D03*
X035700Y017300D03*
M02*