%FSDAX24Y24*%
%MOIN*%
%SFA1B1*%

%IPPOS*%
%ADD11C,0.031500*%
%ADD12C,0.010000*%
%ADD13R,0.059100X0.059100*%
%ADD14C,0.059100*%
%ADD15R,0.059100X0.059100*%
%ADD16R,0.066900X0.066900*%
%ADD17C,0.066900*%
%ADD18C,0.050000*%
%ADD31C,0.005000*%
%LNcarteasserv-1*%
%LPD*%
G54D31*
X037525Y013031D02*
X037509Y013025D01*
X037510Y013025*
X021775*
Y016070*
X021787Y016074*
X021782Y016082*
X021860Y016022*
X021952Y015984*
X022050Y015971*
X022147Y015984*
X022239Y016022*
X022294Y016065*
X023195*
X023238Y016033*
X023340Y015990*
X023450Y015975*
X023559Y015990*
X023661Y016033*
X023749Y016100*
X023816Y016188*
X023859Y016290*
X023874Y016400*
X023859Y016509*
X023816Y016611*
X023749Y016699*
X023661Y016766*
X023559Y016809*
X023450Y016824*
X023340Y016809*
X023238Y016766*
X023150Y016699*
X023100Y016635*
X022294*
X022239Y016677*
X022147Y016715*
X022050Y016728*
X021952Y016715*
X021860Y016677*
X021782Y016617*
X021787Y016625*
X021775Y016629*
Y019620*
X021787Y019624*
X021782Y019632*
X021860Y019572*
X021952Y019534*
X022050Y019521*
X022147Y019534*
X022239Y019572*
X022294Y019615*
X023188*
X023200Y019600*
X023288Y019533*
X023390Y019490*
X023500Y019475*
X023609Y019490*
X023711Y019533*
X023799Y019600*
X023866Y019688*
X023909Y019790*
X023924Y019900*
X023909Y020009*
X023866Y020111*
X023799Y020199*
X023711Y020266*
X023609Y020309*
X023500Y020324*
X023390Y020309*
X023288Y020266*
X023200Y020199*
X023188Y020185*
X022294*
X022239Y020227*
X022147Y020265*
X022050Y020278*
X021952Y020265*
X021860Y020227*
X021782Y020167*
X021787Y020175*
X021775Y020179*
Y034310*
X021775Y034309*
X021781Y034325*
X037525*
Y013031*
G54D12*
X037475Y013065D02*
X037498Y013075D01*
X021825*
Y016034*
X021869Y016049*
X022040Y015820*
X021835Y015978*
X021939Y015935*
X022050Y015921*
X022160Y015935*
X022264Y015978*
X022311Y016015*
X023179*
X023213Y015989*
X023327Y015941*
X023450Y015925*
X023572Y015941*
X023686Y015989*
X023785Y016064*
X023860Y016163*
X023907Y016277*
X023924Y016400*
X023907Y016522*
X023860Y016636*
X023785Y016735*
X023686Y016810*
X023572Y016857*
X023450Y016874*
X023327Y016857*
X023213Y016810*
X023114Y016735*
X023075Y016685*
X022311*
X022264Y016721*
X022160Y016764*
X022050Y016778*
X021939Y016764*
X021835Y016721*
X022040Y016879*
X021869Y016650*
X021825Y016665*
Y019584*
X021869Y019599*
X022040Y019370*
X021835Y019528*
X021939Y019485*
X022050Y019471*
X022160Y019485*
X022264Y019528*
X022311Y019565*
X023164*
X023164Y019564*
X023263Y019489*
X023377Y019441*
X023500Y019425*
X023622Y019441*
X023736Y019489*
X023835Y019564*
X023910Y019663*
X023957Y019777*
X023974Y019900*
X023957Y020022*
X023910Y020136*
X023835Y020235*
X023736Y020310*
X023622Y020357*
X023500Y020374*
X023377Y020357*
X023263Y020310*
X023164Y020235*
X023164Y020235*
X022311*
X022264Y020271*
X022160Y020314*
X022050Y020328*
X021939Y020314*
X021835Y020271*
X022040Y020429*
X021869Y020200*
X021825Y020215*
Y034298*
X021815Y034275*
X037475*
Y013065*
X021870Y013080D02*
Y016030D01*
Y016680D02*
Y019590D01*
Y020220D02*
Y034250D01*
X021970Y013080D02*
Y015930D01*
Y016780D02*
Y019470D01*
Y020340D02*
Y034250D01*
X022070Y013080D02*
Y015910D01*
Y016800D02*
Y019470D01*
Y020340D02*
Y034250D01*
X022170Y013080D02*
Y015930D01*
Y016780D02*
Y019490D01*
Y020320D02*
Y034250D01*
X022270Y013080D02*
Y015970D01*
Y016740D02*
Y019530D01*
Y020280D02*
Y034250D01*
X022370Y013080D02*
Y015990D01*
Y016700D02*
Y019550D01*
Y020240D02*
Y034250D01*
X022470Y013080D02*
Y015990D01*
Y016700D02*
Y019550D01*
Y020240D02*
Y034250D01*
X022570Y013080D02*
Y015990D01*
Y016700D02*
Y019550D01*
Y020240D02*
Y034250D01*
X022670Y013080D02*
Y015990D01*
Y016700D02*
Y019550D01*
Y020240D02*
Y034250D01*
X022770Y013080D02*
Y015990D01*
Y016700D02*
Y019550D01*
Y020240D02*
Y034250D01*
X022870Y013080D02*
Y015990D01*
Y016700D02*
Y019550D01*
Y020240D02*
Y034250D01*
X022970Y013080D02*
Y015990D01*
Y016700D02*
Y019550D01*
Y020240D02*
Y034250D01*
X023070Y013080D02*
Y015990D01*
Y016700D02*
Y019550D01*
Y020240D02*
Y034250D01*
X023170Y013080D02*
Y015990D01*
Y016800D02*
Y019550D01*
Y020260D02*
Y034250D01*
X023270Y013080D02*
Y015950D01*
Y016860D02*
Y019470D01*
Y020340D02*
Y034250D01*
X023370Y013080D02*
Y015930D01*
Y016880D02*
Y019430D01*
Y020380D02*
Y034250D01*
X023470Y013080D02*
Y015930D01*
Y016880D02*
Y019430D01*
Y020380D02*
Y034250D01*
X023570Y013080D02*
Y015930D01*
Y016880D02*
Y019430D01*
Y020380D02*
Y034250D01*
X023670Y013080D02*
Y015970D01*
Y016840D02*
Y019450D01*
Y020360D02*
Y034250D01*
X023770Y013080D02*
Y016030D01*
Y016780D02*
Y019510D01*
Y020300D02*
Y034250D01*
X023870Y013080D02*
Y016170D01*
Y016640D02*
Y019590D01*
Y020220D02*
Y034250D01*
X023970Y013080D02*
Y034250D01*
X024070Y013080D02*
Y034250D01*
X024170Y013080D02*
Y034250D01*
X024270Y013080D02*
Y034250D01*
X024370Y013080D02*
Y034250D01*
X024470Y013080D02*
Y034250D01*
X024570Y013080D02*
Y034250D01*
X024670Y013080D02*
Y034250D01*
X024770Y013080D02*
Y034250D01*
X024870Y013080D02*
Y034250D01*
X024970Y013080D02*
Y034250D01*
X025070Y013080D02*
Y034250D01*
X025170Y013080D02*
Y034250D01*
X025270Y013080D02*
Y034250D01*
X025370Y013080D02*
Y034250D01*
X025470Y013080D02*
Y034250D01*
X025570Y013080D02*
Y034250D01*
X025670Y013080D02*
Y034250D01*
X025770Y013080D02*
Y034250D01*
X025870Y013080D02*
Y034250D01*
X025970Y013080D02*
Y034250D01*
X026070Y013080D02*
Y034250D01*
X026170Y013080D02*
Y034250D01*
X026270Y013080D02*
Y034250D01*
X026370Y013080D02*
Y034250D01*
X026470Y013080D02*
Y034250D01*
X026570Y013080D02*
Y034250D01*
X026670Y013080D02*
Y034250D01*
X026770Y013080D02*
Y034250D01*
X026870Y013080D02*
Y034250D01*
X026970Y013080D02*
Y034250D01*
X027070Y013080D02*
Y034250D01*
X027170Y013080D02*
Y034250D01*
X027270Y013080D02*
Y034250D01*
X027370Y013080D02*
Y034250D01*
X027470Y013080D02*
Y034250D01*
X027570Y013080D02*
Y034250D01*
X027670Y013080D02*
Y034250D01*
X027770Y013080D02*
Y034250D01*
X027870Y013080D02*
Y034250D01*
X027970Y013080D02*
Y034250D01*
X028070Y013080D02*
Y034250D01*
X028170Y013080D02*
Y034250D01*
X028270Y013080D02*
Y034250D01*
X028370Y013080D02*
Y034250D01*
X028470Y013080D02*
Y034250D01*
X028570Y013080D02*
Y034250D01*
X028670Y013080D02*
Y034250D01*
X028770Y013080D02*
Y034250D01*
X028870Y013080D02*
Y034250D01*
X028970Y013080D02*
Y034250D01*
X029070Y013080D02*
Y034250D01*
X029170Y013080D02*
Y034250D01*
X029270Y013080D02*
Y034250D01*
X029370Y013080D02*
Y034250D01*
X029470Y013080D02*
Y034250D01*
X029570Y013080D02*
Y034250D01*
X029670Y013080D02*
Y034250D01*
X029770Y013080D02*
Y034250D01*
X029870Y013080D02*
Y034250D01*
X029970Y013080D02*
Y034250D01*
X030070Y013080D02*
Y034250D01*
X030170Y013080D02*
Y034250D01*
X030270Y013080D02*
Y034250D01*
X030370Y013080D02*
Y034250D01*
X030470Y013080D02*
Y034250D01*
X030570Y013080D02*
Y034250D01*
X030670Y013080D02*
Y034250D01*
X030770Y013080D02*
Y034250D01*
X030870Y013080D02*
Y034250D01*
X030970Y013080D02*
Y034250D01*
X031070Y013080D02*
Y034250D01*
X031170Y013080D02*
Y034250D01*
X031270Y013080D02*
Y034250D01*
X031370Y013080D02*
Y034250D01*
X031470Y013080D02*
Y034250D01*
X031570Y013080D02*
Y034250D01*
X031670Y013080D02*
Y034250D01*
X031770Y013080D02*
Y034250D01*
X031870Y013080D02*
Y034250D01*
X031970Y013080D02*
Y034250D01*
X032070Y013080D02*
Y034250D01*
X032170Y013080D02*
Y034250D01*
X032270Y013080D02*
Y034250D01*
X032370Y013080D02*
Y034250D01*
X032470Y013080D02*
Y034250D01*
X032570Y013080D02*
Y034250D01*
X032670Y013080D02*
Y034250D01*
X032770Y013080D02*
Y034250D01*
X032870Y013080D02*
Y034250D01*
X032970Y013080D02*
Y034250D01*
X033070Y013080D02*
Y034250D01*
X033170Y013080D02*
Y034250D01*
X033270Y013080D02*
Y034250D01*
X033370Y013080D02*
Y034250D01*
X033470Y013080D02*
Y034250D01*
X033570Y013080D02*
Y034250D01*
X033670Y013080D02*
Y034250D01*
X033770Y013080D02*
Y034250D01*
X033870Y013080D02*
Y034250D01*
X033970Y013080D02*
Y034250D01*
X034070Y013080D02*
Y034250D01*
X034170Y013080D02*
Y034250D01*
X034270Y013080D02*
Y034250D01*
X034370Y013080D02*
Y034250D01*
X034470Y013080D02*
Y034250D01*
X034570Y013080D02*
Y034250D01*
X034670Y013080D02*
Y034250D01*
X034770Y013080D02*
Y034250D01*
X034870Y013080D02*
Y034250D01*
X034970Y013080D02*
Y034250D01*
X035070Y013080D02*
Y034250D01*
X035170Y013080D02*
Y034250D01*
X035270Y013080D02*
Y034250D01*
X035370Y013080D02*
Y034250D01*
X035470Y013080D02*
Y034250D01*
X035570Y013080D02*
Y034250D01*
X035670Y013080D02*
Y034250D01*
X035770Y013080D02*
Y034250D01*
X035870Y013080D02*
Y034250D01*
X035970Y013080D02*
Y034250D01*
X036070Y013080D02*
Y034250D01*
X036170Y013080D02*
Y034250D01*
X036270Y013080D02*
Y034250D01*
X036370Y013080D02*
Y034250D01*
X036470Y013080D02*
Y034250D01*
X036570Y013080D02*
Y034250D01*
X036670Y013080D02*
Y034250D01*
X036770Y013080D02*
Y034250D01*
X036870Y013080D02*
Y034250D01*
X036970Y013080D02*
Y034250D01*
X037070Y013080D02*
Y034250D01*
X037170Y013080D02*
Y034250D01*
X037270Y013080D02*
Y034250D01*
X037370Y013080D02*
Y034250D01*
%LNcarteasserv-2*%
%LPC*%
G36*
X025650Y020699D02*
X025547Y020685D01*
X025451Y020645*
X025368Y020582*
X025351Y020560*
X025000*
X024933Y020551*
X024870Y020525*
X024816Y020484*
X024166Y019834*
X024125Y019780*
X024099Y019717*
X024090Y019650*
Y015710*
X023696*
X023649Y015745*
X023553Y015785*
X023450Y015799*
X023347Y015785*
X023251Y015745*
X023168Y015682*
X023105Y015599*
X023065Y015503*
X023051Y015400*
X023065Y015297*
X023105Y015201*
X023168Y015118*
X023251Y015055*
X023347Y015015*
X023450Y015001*
X023553Y015015*
X023649Y015055*
X023732Y015118*
X023787Y015190*
X024200*
X024267Y015199*
X024330Y015225*
X024384Y015266*
X024534Y015416*
X024575Y015470*
X024591Y015510*
X024640Y015500*
Y014858*
X024442Y014660*
X023749*
X023732Y014682*
X023649Y014745*
X023553Y014785*
X023450Y014799*
X023347Y014785*
X023251Y014745*
X023168Y014682*
X023105Y014599*
X023065Y014503*
X023051Y014400*
X023065Y014297*
X023105Y014201*
X023168Y014118*
X023251Y014055*
X023347Y014015*
X023450Y014001*
X023553Y014015*
X023649Y014055*
X023732Y014118*
X023749Y014140*
X024550*
X024617Y014149*
X024680Y014175*
X024734Y014216*
X025084Y014566*
X025125Y014620*
X025151Y014683*
X025160Y014750*
Y018942*
X025258Y019040*
X025351*
X025368Y019018*
X025451Y018955*
X025547Y018915*
X025650Y018901*
X025753Y018915*
X025849Y018955*
X025932Y019018*
X025995Y019101*
X026035Y019197*
X026049Y019300*
X026035Y019403*
X025995Y019499*
X025932Y019582*
X025849Y019645*
X025753Y019685*
X025650Y019699*
X025547Y019685*
X025451Y019645*
X025368Y019582*
X025351Y019560*
X025150*
X025083Y019551*
X025020Y019525*
X024966Y019484*
X024716Y019234*
X024675Y019180*
X024659Y019140*
X024610Y019150*
Y019542*
X025108Y020040*
X025351*
X025368Y020018*
X025451Y019955*
X025547Y019915*
X025650Y019901*
X025753Y019915*
X025849Y019955*
X025932Y020018*
X025995Y020101*
X026035Y020197*
X026049Y020300*
X026035Y020403*
X025995Y020499*
X025932Y020582*
X025849Y020645*
X025753Y020685*
X025650Y020699*
G37*
G36*
X034650D02*
X034547Y020685D01*
X034451Y020645*
X034368Y020582*
X034305Y020499*
X034265Y020403*
X034251Y020300*
X034265Y020197*
X034305Y020101*
X034368Y020018*
X034451Y019955*
X034547Y019915*
X034650Y019901*
X034753Y019915*
X034849Y019955*
X034932Y020018*
X034995Y020101*
X035035Y020197*
X035049Y020300*
X035035Y020403*
X034995Y020499*
X034932Y020582*
X034849Y020645*
X034753Y020685*
X034650Y020699*
G37*
G36*
X025650Y021699D02*
X025547Y021685D01*
X025451Y021645*
X025368Y021582*
X025305Y021499*
X025265Y021403*
X025251Y021300*
X025265Y021197*
X025305Y021101*
X025368Y021018*
X025451Y020955*
X025547Y020915*
X025650Y020901*
X025753Y020915*
X025849Y020955*
X025932Y021018*
X025995Y021101*
X026035Y021197*
X026049Y021300*
X026035Y021403*
X025995Y021499*
X025932Y021582*
X025849Y021645*
X025753Y021685*
X025650Y021699*
G37*
G36*
X036950Y019699D02*
X036847Y019685D01*
X036751Y019645*
X036668Y019582*
X036651Y019560*
X034949*
X034932Y019582*
X034849Y019645*
X034753Y019685*
X034650Y019699*
X034547Y019685*
X034451Y019645*
X034368Y019582*
X034305Y019499*
X034265Y019403*
X034251Y019300*
X034265Y019197*
X034305Y019101*
X034368Y019018*
X034451Y018955*
X034547Y018915*
X034650Y018901*
X034753Y018915*
X034849Y018955*
X034932Y019018*
X034949Y019040*
X036651*
X036668Y019018*
X036751Y018955*
X036847Y018915*
X036950Y018901*
X037053Y018915*
X037149Y018955*
X037232Y019018*
X037295Y019101*
X037335Y019197*
X037349Y019300*
X037335Y019403*
X037295Y019499*
X037232Y019582*
X037149Y019645*
X037053Y019685*
X036950Y019699*
G37*
G36*
X025650Y018699D02*
X025547Y018685D01*
X025451Y018645*
X025368Y018582*
X025305Y018499*
X025265Y018403*
X025251Y018300*
X025265Y018197*
X025305Y018101*
X025368Y018018*
X025451Y017955*
X025547Y017915*
X025650Y017901*
X025753Y017915*
X025849Y017955*
X025932Y018018*
X025995Y018101*
X026035Y018197*
X026049Y018300*
X026035Y018403*
X025995Y018499*
X025932Y018582*
X025849Y018645*
X025753Y018685*
X025650Y018699*
G37*
G36*
X036950D02*
X036847Y018685D01*
X036751Y018645*
X036668Y018582*
X036651Y018560*
X034949*
X034932Y018582*
X034849Y018645*
X034753Y018685*
X034650Y018699*
X034547Y018685*
X034451Y018645*
X034368Y018582*
X034305Y018499*
X034265Y018403*
X034251Y018300*
X034265Y018197*
X034305Y018101*
X034368Y018018*
X034451Y017955*
X034547Y017915*
X034650Y017901*
X034753Y017915*
X034849Y017955*
X034932Y018018*
X034949Y018040*
X036651*
X036668Y018018*
X036751Y017955*
X036847Y017915*
X036950Y017901*
X037053Y017915*
X037149Y017955*
X037232Y018018*
X037295Y018101*
X037335Y018197*
X037349Y018300*
X037335Y018403*
X037295Y018499*
X037232Y018582*
X037149Y018645*
X037053Y018685*
X036950Y018699*
G37*
G36*
Y017699D02*
X036847Y017685D01*
X036751Y017645*
X036668Y017582*
X036651Y017560*
X035936*
X035877Y017606*
X035791Y017641*
X035700Y017653*
X035609Y017641*
X035523Y017606*
X035450Y017550*
X035394Y017477*
X035359Y017391*
X035347Y017300*
X035359Y017209*
X035394Y017123*
X035450Y017050*
X035523Y016994*
X035609Y016959*
X035700Y016947*
X035791Y016959*
X035877Y016994*
X035936Y017040*
X036651*
X036668Y017018*
X036751Y016955*
X036847Y016915*
X036950Y016901*
X037053Y016915*
X037149Y016955*
X037232Y017018*
X037295Y017101*
X037335Y017197*
X037349Y017300*
X037335Y017403*
X037295Y017499*
X037232Y017582*
X037149Y017645*
X037053Y017685*
X036950Y017699*
G37*
G36*
X034650Y023699D02*
X034547Y023685D01*
X034451Y023645*
X034368Y023582*
X034305Y023499*
X034265Y023403*
X034251Y023300*
X034265Y023197*
X034305Y023101*
X034368Y023018*
X034451Y022955*
X034547Y022915*
X034650Y022901*
X034753Y022915*
X034849Y022955*
X034932Y023018*
X034995Y023101*
X035035Y023197*
X035049Y023300*
X035035Y023403*
X034995Y023499*
X034932Y023582*
X034849Y023645*
X034753Y023685*
X034650Y023699*
G37*
G36*
X023895Y022850D02*
X023550D01*
Y022505*
X023895*
Y022850*
G37*
G36*
Y023295D02*
X023550D01*
Y022950*
X023895*
Y023295*
G37*
G36*
X023450D02*
X023105D01*
Y022950*
X023450*
Y023295*
G37*
G36*
X025650Y022699D02*
X025547Y022685D01*
X025451Y022645*
X025368Y022582*
X025305Y022499*
X025265Y022403*
X025251Y022300*
X025265Y022197*
X025305Y022101*
X025368Y022018*
X025451Y021955*
X025547Y021915*
X025650Y021901*
X025753Y021915*
X025849Y021955*
X025932Y022018*
X025995Y022101*
X026035Y022197*
X026049Y022300*
X026035Y022403*
X025995Y022499*
X025932Y022582*
X025849Y022645*
X025753Y022685*
X025650Y022699*
G37*
G36*
X034650Y021699D02*
X034547Y021685D01*
X034451Y021645*
X034368Y021582*
X034305Y021499*
X034265Y021403*
X034251Y021300*
X034265Y021197*
X034305Y021101*
X034368Y021018*
X034451Y020955*
X034547Y020915*
X034650Y020901*
X034753Y020915*
X034849Y020955*
X034932Y021018*
X034995Y021101*
X035035Y021197*
X035049Y021300*
X035035Y021403*
X034995Y021499*
X034932Y021582*
X034849Y021645*
X034753Y021685*
X034650Y021699*
G37*
G36*
X023450Y022850D02*
X023105D01*
Y022505*
X023450*
Y022850*
G37*
G36*
X034650Y022699D02*
X034547Y022685D01*
X034451Y022645*
X034368Y022582*
X034305Y022499*
X034265Y022403*
X034251Y022300*
X034265Y022197*
X034305Y022101*
X034368Y022018*
X034451Y021955*
X034547Y021915*
X034650Y021901*
X034753Y021915*
X034849Y021955*
X034932Y022018*
X034995Y022101*
X035035Y022197*
X035049Y022300*
X035035Y022403*
X034995Y022499*
X034932Y022582*
X034849Y022645*
X034753Y022685*
X034650Y022699*
G37*
G36*
Y016699D02*
X034547Y016685D01*
X034451Y016645*
X034368Y016582*
X034305Y016499*
X034265Y016403*
X034251Y016300*
X034265Y016197*
X034305Y016101*
X034368Y016018*
X034451Y015955*
X034547Y015915*
X034650Y015901*
X034753Y015915*
X034849Y015955*
X034932Y016018*
X034995Y016101*
X035035Y016197*
X035049Y016300*
X035035Y016403*
X034995Y016499*
X034932Y016582*
X034849Y016645*
X034753Y016685*
X034650Y016699*
G37*
G36*
X025650D02*
X025547Y016685D01*
X025451Y016645*
X025368Y016582*
X025305Y016499*
X025265Y016403*
X025251Y016300*
X025265Y016197*
X025305Y016101*
X025368Y016018*
X025451Y015955*
X025547Y015915*
X025650Y015901*
X025753Y015915*
X025849Y015955*
X025932Y016018*
X025995Y016101*
X026035Y016197*
X026049Y016300*
X026035Y016403*
X025995Y016499*
X025932Y016582*
X025849Y016645*
X025753Y016685*
X025650Y016699*
G37*
G36*
X037345Y016250D02*
X037000D01*
Y015905*
X037345*
Y016250*
G37*
G36*
X036900D02*
X036555D01*
Y015905*
X036900*
Y016250*
G37*
G36*
X034650Y014699D02*
X034547Y014685D01*
X034451Y014645*
X034368Y014582*
X034305Y014499*
X034265Y014403*
X034251Y014300*
X034265Y014197*
X034305Y014101*
X034368Y014018*
X034451Y013955*
X034547Y013915*
X034650Y013901*
X034753Y013915*
X034849Y013955*
X034932Y014018*
X034995Y014101*
X035035Y014197*
X035049Y014300*
X035035Y014403*
X034995Y014499*
X034932Y014582*
X034849Y014645*
X034753Y014685*
X034650Y014699*
G37*
G36*
X025650D02*
X025547Y014685D01*
X025451Y014645*
X025368Y014582*
X025305Y014499*
X025265Y014403*
X025251Y014300*
X025265Y014197*
X025305Y014101*
X025368Y014018*
X025451Y013955*
X025547Y013915*
X025650Y013901*
X025753Y013915*
X025849Y013955*
X025932Y014018*
X025995Y014101*
X026035Y014197*
X026049Y014300*
X026035Y014403*
X025995Y014499*
X025932Y014582*
X025849Y014645*
X025753Y014685*
X025650Y014699*
G37*
G36*
X034650Y015699D02*
X034547Y015685D01*
X034451Y015645*
X034368Y015582*
X034305Y015499*
X034265Y015403*
X034251Y015300*
X034265Y015197*
X034305Y015101*
X034368Y015018*
X034451Y014955*
X034547Y014915*
X034650Y014901*
X034753Y014915*
X034849Y014955*
X034932Y015018*
X034995Y015101*
X035035Y015197*
X035049Y015300*
X035035Y015403*
X034995Y015499*
X034932Y015582*
X034849Y015645*
X034753Y015685*
X034650Y015699*
G37*
G36*
X025650D02*
X025547Y015685D01*
X025451Y015645*
X025368Y015582*
X025305Y015499*
X025265Y015403*
X025251Y015300*
X025265Y015197*
X025305Y015101*
X025368Y015018*
X025451Y014955*
X025547Y014915*
X025650Y014901*
X025753Y014915*
X025849Y014955*
X025932Y015018*
X025995Y015101*
X026035Y015197*
X026049Y015300*
X026035Y015403*
X025995Y015499*
X025932Y015582*
X025849Y015645*
X025753Y015685*
X025650Y015699*
G37*
G36*
X023845Y017350D02*
X023500D01*
Y017005*
X023845*
Y017350*
G37*
G36*
X023400D02*
X023055D01*
Y017005*
X023400*
Y017350*
G37*
G36*
X023845Y017795D02*
X023500D01*
Y017450*
X023845*
Y017795*
G37*
G36*
X023400D02*
X023055D01*
Y017450*
X023400*
Y017795*
G37*
G36*
X037345Y016695D02*
X037000D01*
Y016350*
X037345*
Y016695*
G37*
G36*
X036900D02*
X036555D01*
Y016350*
X036900*
Y016695*
G37*
G36*
X034650Y017699D02*
X034547Y017685D01*
X034451Y017645*
X034368Y017582*
X034305Y017499*
X034265Y017403*
X034251Y017300*
X034265Y017197*
X034305Y017101*
X034368Y017018*
X034451Y016955*
X034547Y016915*
X034650Y016901*
X034753Y016915*
X034849Y016955*
X034932Y017018*
X034995Y017101*
X035035Y017197*
X035049Y017300*
X035035Y017403*
X034995Y017499*
X034932Y017582*
X034849Y017645*
X034753Y017685*
X034650Y017699*
G37*
G36*
X025650D02*
X025547Y017685D01*
X025451Y017645*
X025368Y017582*
X025305Y017499*
X025265Y017403*
X025251Y017300*
X025265Y017197*
X025305Y017101*
X025368Y017018*
X025451Y016955*
X025547Y016915*
X025650Y016901*
X025753Y016915*
X025849Y016955*
X025932Y017018*
X025995Y017101*
X026035Y017197*
X026049Y017300*
X026035Y017403*
X025995Y017499*
X025932Y017582*
X025849Y017645*
X025753Y017685*
X025650Y017699*
G37*
G36*
X023400Y025599D02*
X023297Y025585D01*
X023201Y025545*
X023118Y025482*
X023055Y025399*
X023015Y025303*
X023001Y025200*
X023015Y025097*
X023055Y025001*
X023118Y024918*
X023140Y024901*
Y024386*
X023094Y024327*
X023059Y024241*
X023047Y024150*
X023059Y024059*
X023094Y023973*
X023150Y023900*
X023223Y023844*
X023309Y023809*
X023400Y023797*
X023491Y023809*
X023577Y023844*
X023650Y023900*
X023706Y023973*
X023741Y024059*
X023753Y024150*
X023741Y024241*
X023706Y024327*
X023660Y024386*
Y024901*
X023682Y024918*
X023745Y025001*
X023785Y025097*
X023799Y025200*
X023785Y025303*
X023745Y025399*
X023682Y025482*
X023599Y025545*
X023503Y025585*
X023400Y025599*
G37*
G36*
X034650Y031699D02*
X034547Y031685D01*
X034451Y031645*
X034368Y031582*
X034305Y031499*
X034265Y031403*
X034251Y031300*
X034265Y031197*
X034305Y031101*
X034368Y031018*
X034451Y030955*
X034547Y030915*
X034650Y030901*
X034753Y030915*
X034849Y030955*
X034932Y031018*
X034995Y031101*
X035035Y031197*
X035049Y031300*
X035035Y031403*
X034995Y031499*
X034932Y031582*
X034849Y031645*
X034753Y031685*
X034650Y031699*
G37*
G36*
X025650D02*
X025547Y031685D01*
X025451Y031645*
X025368Y031582*
X025305Y031499*
X025265Y031403*
X025251Y031300*
X025265Y031197*
X025305Y031101*
X025368Y031018*
X025451Y030955*
X025547Y030915*
X025650Y030901*
X025753Y030915*
X025849Y030955*
X025932Y031018*
X025995Y031101*
X026035Y031197*
X026049Y031300*
X026035Y031403*
X025995Y031499*
X025932Y031582*
X025849Y031645*
X025753Y031685*
X025650Y031699*
G37*
G36*
X023695Y033750D02*
X022905D01*
Y033405*
X022990*
Y032099*
X022940Y032060*
X022870Y031969*
X022827Y031863*
X022818Y031800*
X023682*
X023673Y031863*
X023630Y031969*
X023560Y032060*
X023510Y032099*
Y033405*
X023695*
Y033750*
G37*
G36*
X023682Y031700D02*
X022818D01*
X022827Y031637*
X022870Y031531*
X022940Y031440*
X022990Y031401*
Y030950*
X022999Y030883*
X023025Y030820*
X023066Y030766*
X023254Y030579*
X023252Y030595*
X023258Y030645*
X023555*
Y030942*
X023605Y030948*
X023621Y030946*
X023510Y031058*
Y031401*
X023560Y031440*
X023630Y031531*
X023673Y031637*
X023682Y031700*
G37*
G36*
X023951Y030545D02*
X023655D01*
Y030249*
X023696Y030254*
X023781Y030290*
X023854Y030346*
X023910Y030419*
X023946Y030504*
X023951Y030545*
G37*
G36*
X023555D02*
X023258D01*
X023264Y030504*
X023299Y030419*
X023355Y030346*
X023428Y030290*
X023513Y030254*
X023555Y030249*
Y030545*
G37*
G36*
X023655Y030942D02*
Y030645D01*
X023951*
X023946Y030687*
X023910Y030772*
X023854Y030845*
X023781Y030901*
X023696Y030936*
X023655Y030942*
G37*
G36*
X022250Y033053D02*
X022159Y033041D01*
X022073Y033006*
X022000Y032950*
X021944Y032877*
X021909Y032791*
X021897Y032700*
X021909Y032609*
X021944Y032523*
X021990Y032464*
Y032099*
X021940Y032060*
X021870Y031969*
X021827Y031863*
X021812Y031750*
X021827Y031637*
X021870Y031531*
X021940Y031440*
X021990Y031401*
Y030936*
X021944Y030877*
X021909Y030791*
X021897Y030700*
X021909Y030609*
X021944Y030523*
X022000Y030450*
X022073Y030394*
X022159Y030359*
X022250Y030347*
X022341Y030359*
X022427Y030394*
X022500Y030450*
X022556Y030523*
X022591Y030609*
X022603Y030700*
X022591Y030791*
X022556Y030877*
X022510Y030936*
Y031401*
X022560Y031440*
X022630Y031531*
X022673Y031637*
X022688Y031750*
X022673Y031863*
X022630Y031969*
X022560Y032060*
X022510Y032099*
Y032464*
X022556Y032523*
X022591Y032609*
X022603Y032700*
X022591Y032791*
X022556Y032877*
X022500Y032950*
X022427Y033006*
X022341Y033041*
X022250Y033053*
G37*
G36*
X026045Y033695D02*
X025700D01*
Y033350*
X026045*
Y033695*
G37*
G36*
X025600D02*
X025255D01*
Y033350*
X025600*
Y033695*
G37*
G36*
X023695Y034195D02*
X023350D01*
Y033850*
X023695*
Y034195*
G37*
G36*
X023250D02*
X022905D01*
Y033850*
X023250*
Y034195*
G37*
G36*
X034650Y032699D02*
X034547Y032685D01*
X034451Y032645*
X034368Y032582*
X034305Y032499*
X034265Y032403*
X034251Y032300*
X034265Y032197*
X034305Y032101*
X034368Y032018*
X034451Y031955*
X034547Y031915*
X034650Y031901*
X034753Y031915*
X034849Y031955*
X034932Y032018*
X034995Y032101*
X035035Y032197*
X035049Y032300*
X035035Y032403*
X034995Y032499*
X034932Y032582*
X034849Y032645*
X034753Y032685*
X034650Y032699*
G37*
G36*
X024300Y034199D02*
X024197Y034185D01*
X024101Y034145*
X024018Y034082*
X023955Y033999*
X023915Y033903*
X023901Y033800*
X023915Y033697*
X023955Y033601*
X024018Y033518*
X024040Y033501*
Y032185*
X023815*
Y031315*
X024317*
X024340Y031292*
Y030736*
X024294Y030677*
X024259Y030591*
X024247Y030500*
X024259Y030409*
X024294Y030323*
X024350Y030250*
X024423Y030194*
X024509Y030159*
X024600Y030147*
X024691Y030159*
X024777Y030194*
X024850Y030250*
X024906Y030323*
X024941Y030409*
X024953Y030500*
X024941Y030591*
X024906Y030677*
X024860Y030736*
Y031400*
X024851Y031467*
X024825Y031530*
X024784Y031584*
X024685Y031683*
Y032185*
X024560*
Y032602*
X024609Y032609*
X024644Y032523*
X024700Y032450*
X024773Y032394*
X024859Y032359*
X024934Y032349*
X025166Y032116*
X025220Y032075*
X025283Y032049*
X025350Y032040*
X025351*
X025368Y032018*
X025451Y031955*
X025547Y031915*
X025650Y031901*
X025753Y031915*
X025849Y031955*
X025932Y032018*
X025995Y032101*
X026035Y032197*
X026049Y032300*
X026035Y032403*
X025995Y032499*
X025932Y032582*
X025849Y032645*
X025753Y032685*
X025650Y032699*
X025547Y032685*
X025451Y032645*
X025406Y032611*
X025301Y032716*
X025291Y032791*
X025261Y032863*
X025285Y032899*
X025292Y032905*
X025600*
Y033250*
X025255*
Y032956*
X025207Y032940*
X025200Y032950*
X025127Y033006*
X025041Y033041*
X024950Y033053*
X024859Y033041*
X024773Y033006*
X024700Y032950*
X024644Y032877*
X024609Y032791*
X024560Y032798*
Y033501*
X024582Y033518*
X024645Y033601*
X024685Y033697*
X024699Y033800*
X024685Y033903*
X024645Y033999*
X024582Y034082*
X024499Y034145*
X024403Y034185*
X024300Y034199*
G37*
G36*
X026045Y033250D02*
X025700D01*
Y032905*
X026045*
Y033250*
G37*
G36*
X034650Y033699D02*
X034547Y033685D01*
X034451Y033645*
X034368Y033582*
X034305Y033499*
X034265Y033403*
X034251Y033300*
X034265Y033197*
X034305Y033101*
X034368Y033018*
X034451Y032955*
X034547Y032915*
X034650Y032901*
X034753Y032915*
X034849Y032955*
X034932Y033018*
X034995Y033101*
X035035Y033197*
X035049Y033300*
X035035Y033403*
X034995Y033499*
X034932Y033582*
X034849Y033645*
X034753Y033685*
X034650Y033699*
G37*
G36*
Y027699D02*
X034547Y027685D01*
X034451Y027645*
X034368Y027582*
X034305Y027499*
X034265Y027403*
X034251Y027300*
X034265Y027197*
X034305Y027101*
X034368Y027018*
X034451Y026955*
X034547Y026915*
X034650Y026901*
X034753Y026915*
X034849Y026955*
X034932Y027018*
X034995Y027101*
X035035Y027197*
X035049Y027300*
X035035Y027403*
X034995Y027499*
X034932Y027582*
X034849Y027645*
X034753Y027685*
X034650Y027699*
G37*
G36*
X025650D02*
X025547Y027685D01*
X025451Y027645*
X025368Y027582*
X025305Y027499*
X025265Y027403*
X025251Y027300*
X025265Y027197*
X025305Y027101*
X025368Y027018*
X025451Y026955*
X025547Y026915*
X025650Y026901*
X025753Y026915*
X025849Y026955*
X025932Y027018*
X025995Y027101*
X026035Y027197*
X026049Y027300*
X026035Y027403*
X025995Y027499*
X025932Y027582*
X025849Y027645*
X025753Y027685*
X025650Y027699*
G37*
G36*
X023795Y028150D02*
X023450D01*
Y027805*
X023795*
Y028150*
G37*
G36*
X023350D02*
X023005D01*
Y027805*
X023350*
Y028150*
G37*
G36*
X034650Y025699D02*
X034547Y025685D01*
X034451Y025645*
X034368Y025582*
X034305Y025499*
X034265Y025403*
X034251Y025300*
X034265Y025197*
X034305Y025101*
X034368Y025018*
X034451Y024955*
X034547Y024915*
X034650Y024901*
X034753Y024915*
X034849Y024955*
X034932Y025018*
X034995Y025101*
X035035Y025197*
X035049Y025300*
X035035Y025403*
X034995Y025499*
X034932Y025582*
X034849Y025645*
X034753Y025685*
X034650Y025699*
G37*
G36*
Y024699D02*
X034547Y024685D01*
X034451Y024645*
X034368Y024582*
X034305Y024499*
X034265Y024403*
X034251Y024300*
X034265Y024197*
X034305Y024101*
X034368Y024018*
X034451Y023955*
X034547Y023915*
X034650Y023901*
X034753Y023915*
X034849Y023955*
X034932Y024018*
X034995Y024101*
X035035Y024197*
X035049Y024300*
X035035Y024403*
X034995Y024499*
X034932Y024582*
X034849Y024645*
X034753Y024685*
X034650Y024699*
G37*
G36*
Y026699D02*
X034547Y026685D01*
X034451Y026645*
X034368Y026582*
X034305Y026499*
X034265Y026403*
X034251Y026300*
X034265Y026197*
X034305Y026101*
X034368Y026018*
X034451Y025955*
X034547Y025915*
X034650Y025901*
X034753Y025915*
X034849Y025955*
X034932Y026018*
X034995Y026101*
X035035Y026197*
X035049Y026300*
X035035Y026403*
X034995Y026499*
X034932Y026582*
X034849Y026645*
X034753Y026685*
X034650Y026699*
G37*
G36*
X023400Y027599D02*
X023297Y027585D01*
X023201Y027545*
X023118Y027482*
X023101Y027460*
X022850*
X022783Y027451*
X022720Y027425*
X022666Y027384*
X022416Y027134*
X022375Y027080*
X022349Y027017*
X022340Y026950*
Y022200*
X022349Y022133*
X022375Y022070*
X022416Y022016*
X022716Y021716*
X022770Y021675*
X022833Y021649*
X022900Y021640*
X023201*
X023218Y021618*
X023301Y021555*
X023397Y021515*
X023500Y021501*
X023603Y021515*
X023699Y021555*
X023782Y021618*
X023845Y021701*
X023885Y021797*
X023899Y021900*
X023885Y022003*
X023845Y022099*
X023782Y022182*
X023699Y022245*
X023603Y022285*
X023500Y022299*
X023397Y022285*
X023301Y022245*
X023218Y022182*
X023201Y022160*
X023008*
X022860Y022308*
Y026842*
X022958Y026940*
X023101*
X023118Y026918*
X023201Y026855*
X023297Y026815*
X023400Y026801*
X023503Y026815*
X023599Y026855*
X023682Y026918*
X023699Y026940*
X024292*
X024490Y026742*
Y026200*
X024499Y026133*
X024525Y026070*
X024566Y026016*
X025255Y025328*
X025251Y025300*
X025265Y025197*
X025305Y025101*
X025363Y025025*
X025337Y025002*
X025325Y024992*
X023934Y026384*
X023880Y026425*
X023817Y026451*
X023750Y026460*
X023699*
X023682Y026482*
X023599Y026545*
X023503Y026585*
X023400Y026599*
X023297Y026585*
X023201Y026545*
X023118Y026482*
X023055Y026399*
X023015Y026303*
X023001Y026200*
X023015Y026097*
X023055Y026001*
X023118Y025918*
X023201Y025855*
X023297Y025815*
X023400Y025801*
X023503Y025815*
X023599Y025855*
X023672Y025911*
X025255Y024328*
X025251Y024300*
X025255Y024272*
X024566Y023584*
X024525Y023530*
X024499Y023467*
X024490Y023400*
Y021458*
X024192Y021160*
X023799*
X023782Y021182*
X023699Y021245*
X023603Y021285*
X023500Y021299*
X023397Y021285*
X023301Y021245*
X023218Y021182*
X023155Y021099*
X023115Y021003*
X023101Y020900*
X023115Y020797*
X023155Y020701*
X023218Y020618*
X023301Y020555*
X023397Y020515*
X023500Y020501*
X023603Y020515*
X023699Y020555*
X023782Y020618*
X023799Y020640*
X024300*
X024367Y020649*
X024430Y020675*
X024484Y020716*
X024934Y021166*
X024975Y021220*
X025001Y021283*
X025010Y021350*
Y023292*
X025325Y023608*
X025363Y023575*
X025305Y023499*
X025265Y023403*
X025251Y023300*
X025265Y023197*
X025305Y023101*
X025368Y023018*
X025451Y022955*
X025547Y022915*
X025650Y022901*
X025753Y022915*
X025849Y022955*
X025932Y023018*
X025995Y023101*
X026035Y023197*
X026049Y023300*
X026035Y023403*
X025995Y023499*
X025932Y023582*
X025849Y023645*
X025753Y023685*
X025650Y023699*
X025547Y023685*
X025451Y023645*
X025375Y023587*
X025342Y023625*
X025622Y023905*
X025650Y023901*
X025753Y023915*
X025849Y023955*
X025932Y024018*
X025995Y024101*
X026035Y024197*
X026049Y024300*
X026035Y024403*
X025995Y024499*
X025932Y024582*
X025849Y024645*
X025753Y024685*
X025650Y024699*
X025622Y024695*
X025342Y024975*
X025367Y025003*
X025386Y025004*
X025451Y024955*
X025547Y024915*
X025650Y024901*
X025753Y024915*
X025849Y024955*
X025932Y025018*
X025995Y025101*
X026035Y025197*
X026049Y025300*
X026035Y025403*
X025995Y025499*
X025932Y025582*
X025849Y025645*
X025753Y025685*
X025650Y025699*
X025622Y025695*
X025342Y025975*
X025375Y026013*
X025451Y025955*
X025547Y025915*
X025650Y025901*
X025753Y025915*
X025849Y025955*
X025932Y026018*
X025995Y026101*
X026035Y026197*
X026049Y026300*
X026035Y026403*
X025995Y026499*
X025932Y026582*
X025849Y026645*
X025753Y026685*
X025650Y026699*
X025547Y026685*
X025451Y026645*
X025368Y026582*
X025305Y026499*
X025265Y026403*
X025251Y026300*
X025265Y026197*
X025305Y026101*
X025363Y026025*
X025325Y025992*
X025010Y026308*
Y026850*
X025001Y026917*
X024975Y026980*
X024934Y027034*
X024584Y027384*
X024530Y027425*
X024467Y027451*
X024400Y027460*
X023699*
X023682Y027482*
X023599Y027545*
X023503Y027585*
X023400Y027599*
G37*
G36*
X034650Y029699D02*
X034547Y029685D01*
X034451Y029645*
X034368Y029582*
X034305Y029499*
X034265Y029403*
X034251Y029300*
X034265Y029197*
X034305Y029101*
X034368Y029018*
X034451Y028955*
X034547Y028915*
X034650Y028901*
X034753Y028915*
X034849Y028955*
X034932Y029018*
X034995Y029101*
X035035Y029197*
X035049Y029300*
X035035Y029403*
X034995Y029499*
X034932Y029582*
X034849Y029645*
X034753Y029685*
X034650Y029699*
G37*
G36*
X025650D02*
X025547Y029685D01*
X025451Y029645*
X025368Y029582*
X025305Y029499*
X025265Y029403*
X025251Y029300*
X025265Y029197*
X025305Y029101*
X025368Y029018*
X025451Y028955*
X025547Y028915*
X025650Y028901*
X025753Y028915*
X025849Y028955*
X025932Y029018*
X025995Y029101*
X026035Y029197*
X026049Y029300*
X026035Y029403*
X025995Y029499*
X025932Y029582*
X025849Y029645*
X025753Y029685*
X025650Y029699*
G37*
G36*
X034650Y030699D02*
X034547Y030685D01*
X034451Y030645*
X034368Y030582*
X034305Y030499*
X034265Y030403*
X034251Y030300*
X034265Y030197*
X034305Y030101*
X034368Y030018*
X034451Y029955*
X034547Y029915*
X034650Y029901*
X034753Y029915*
X034849Y029955*
X034932Y030018*
X034995Y030101*
X035035Y030197*
X035049Y030300*
X035035Y030403*
X034995Y030499*
X034932Y030582*
X034849Y030645*
X034753Y030685*
X034650Y030699*
G37*
G36*
X025650D02*
X025547Y030685D01*
X025451Y030645*
X025368Y030582*
X025305Y030499*
X025265Y030403*
X025251Y030300*
X025265Y030197*
X025305Y030101*
X025368Y030018*
X025451Y029955*
X025547Y029915*
X025650Y029901*
X025753Y029915*
X025849Y029955*
X025932Y030018*
X025995Y030101*
X026035Y030197*
X026049Y030300*
X026035Y030403*
X025995Y030499*
X025932Y030582*
X025849Y030645*
X025753Y030685*
X025650Y030699*
G37*
G36*
X034650Y028699D02*
X034547Y028685D01*
X034451Y028645*
X034368Y028582*
X034305Y028499*
X034265Y028403*
X034251Y028300*
X034265Y028197*
X034305Y028101*
X034368Y028018*
X034451Y027955*
X034547Y027915*
X034650Y027901*
X034753Y027915*
X034849Y027955*
X034932Y028018*
X034995Y028101*
X035035Y028197*
X035049Y028300*
X035035Y028403*
X034995Y028499*
X034932Y028582*
X034849Y028645*
X034753Y028685*
X034650Y028699*
G37*
G36*
X025650D02*
X025547Y028685D01*
X025451Y028645*
X025368Y028582*
X025305Y028499*
X025265Y028403*
X025251Y028300*
X025265Y028197*
X025305Y028101*
X025368Y028018*
X025451Y027955*
X025547Y027915*
X025650Y027901*
X025753Y027915*
X025849Y027955*
X025932Y028018*
X025995Y028101*
X026035Y028197*
X026049Y028300*
X026035Y028403*
X025995Y028499*
X025932Y028582*
X025849Y028645*
X025753Y028685*
X025650Y028699*
G37*
G36*
X023795Y028595D02*
X023450D01*
Y028250*
X023795*
Y028595*
G37*
G36*
X023350D02*
X023005D01*
Y028250*
X023350*
Y028595*
G37*
%LNcarteasserv-3*%
%LPD*%
G54D11*
X023250Y031750D02*
Y033750D01*
X025350Y032300D02*
X025650D01*
X024950Y032700D02*
X025350Y032300D01*
X022250Y031750D02*
Y032700D01*
X024250Y031750D02*
X024600Y031400D01*
Y030500D02*
Y031400D01*
X023250Y030950D02*
Y031750D01*
Y030950D02*
X023605Y030595D01*
X022250Y030700D02*
Y031750D01*
X024300Y031800D02*
Y033800D01*
X024750Y026200D02*
X025650Y025300D01*
X024750Y026200D02*
Y026850D01*
X024400Y027200D02*
X024750Y026850D01*
X023400Y027200D02*
X024400D01*
X023750Y026200D02*
X025650Y024300D01*
X023400Y026200D02*
X023750D01*
X022850Y027200D02*
X023400D01*
X022600Y026950D02*
X022850Y027200D01*
X022600Y022200D02*
Y026950D01*
Y022200D02*
X022900Y021900D01*
X023500*
X024750Y023400D02*
X025650Y024300D01*
X024750Y021350D02*
Y023400D01*
X024300Y020900D02*
X024750Y021350D01*
X023500Y020900D02*
X024300D01*
X023450Y014400D02*
X024550D01*
X024900Y014750*
Y019050*
X025150Y019300*
X025650*
X023450Y015400D02*
X023500Y015450D01*
X024200*
X024350Y015600*
Y019650*
X025000Y020300*
X025650*
X034650Y019300D02*
X036950D01*
X034650Y018300D02*
X036950D01*
X022050Y016350D02*
X023400D01*
X022050Y019900D02*
X023500D01*
X023400Y024150D02*
Y025200D01*
X035700Y017300D02*
X036950D01*
G54D13*
X023400Y028200D03*
X023500Y022900D03*
X036950Y016300D03*
X023450Y017400D03*
G54D14*
X023400Y027200D03*
Y026200D03*
Y025200D03*
X023500Y021900D03*
Y020900D03*
Y019900D03*
X036950Y017300D03*
Y018300D03*
Y019300D03*
X034650Y014300D03*
Y015300D03*
Y016300D03*
Y017300D03*
Y018300D03*
Y019300D03*
Y020300D03*
Y021300D03*
Y022300D03*
Y023300D03*
Y024300D03*
Y025300D03*
Y026300D03*
Y027300D03*
Y028300D03*
Y029300D03*
Y030300D03*
Y031300D03*
Y032300D03*
Y033300D03*
X025650Y014300D03*
Y015300D03*
Y016300D03*
Y017300D03*
Y018300D03*
Y019300D03*
Y020300D03*
Y021300D03*
Y022300D03*
Y023300D03*
Y024300D03*
Y025300D03*
Y026300D03*
Y027300D03*
Y028300D03*
Y029300D03*
Y030300D03*
Y031300D03*
Y032300D03*
X023450Y016400D03*
Y015400D03*
Y014400D03*
X024300Y033800D03*
G54D15*
X025650Y033300D03*
X023300Y033800D03*
G54D16*
X024250Y031750D03*
G54D17*
X023250Y031750D03*
X022250D03*
G54D18*
X024950Y032700D03*
X022250D03*
X024600Y030500D03*
X023605Y030595D03*
X022250Y030700D03*
X022050Y016350D03*
Y019900D03*
X023400Y024150D03*
X035700Y017300D03*
M02*